<?xml version="1.0" standalone="no"?>
<!DOCTYPE svg PUBLIC "-//W3C//DTD SVG 1.1//EN" "http://www.w3.org/Graphics/SVG/1.1/DTD/svg11.dtd" >
<!--
2014-4-3: Created.
-->
<svg xmlns="http://www.w3.org/2000/svg">
<metadata>
Created by FontForge 20120731 at Thu Apr  3 17:11:32 2014
 By Thiago Bastos
Created by Thiago Bastos with FontForge 2.0 (http://fontforge.sf.net)
</metadata>
<defs>
<font id="icons" horiz-adv-x="512" >
  <font-face 
    font-family="icons"
    font-weight="500"
    font-stretch="normal"
    units-per-em="512"
    panose-1="2 0 6 9 0 0 0 0 0 0"
    ascent="448"
    descent="-64"
    bbox="-3.95215 -64.0156 517.12 448.032"
    underline-thickness="25.6"
    underline-position="-51.2"
    unicode-range="U+F100-F146"
  />
    <missing-glyph />
    <glyph glyph-name="uniF13D" unicode="&#xf13d;" 
d="M165.918 71.8008l-13.4473 -13.4482c-1.79688 -1.79688 -3.86003 -2.69531 -6.18945 -2.69531c-2.32878 0 -4.39193 0.898438 -6.18945 2.69531l-125.304 125.305c-1.79753 1.79688 -2.69629 3.86003 -2.69629 6.18945c0 2.32878 0.898763 4.39193 2.69629 6.18945
l125.304 125.304c1.79753 1.79753 3.86068 2.69629 6.18945 2.69629c2.32943 0 4.39258 -0.898763 6.18945 -2.69629l13.4473 -13.4473c1.79688 -1.79688 2.69531 -3.86003 2.69531 -6.18945c0 -2.32878 -0.898438 -4.3916 -2.69531 -6.18848l-105.683 -105.684
l105.683 -105.683c1.79688 -1.79688 2.69531 -3.8597 2.69531 -6.18848c0 -2.32943 -0.898438 -4.39258 -2.69531 -6.18945v0.0302734zM324.834 358.716l-100.307 -347.166c-0.712891 -2.32878 -2.10352 -4.07552 -4.17188 -5.24023
c-2.06771 -1.16471 -4.17578 -1.39062 -6.32422 -0.677734l-16.6699 4.57812c-2.32943 0.712891 -4.0765 2.10319 -5.24121 4.1709c-1.16406 2.06836 -1.38997 4.26693 -0.677734 6.5957l100.308 347.166c0.71224 2.32943 2.10254 4.0765 4.1709 5.24121
c2.06836 1.16406 4.17676 1.38997 6.3252 0.677734l16.6699 -4.57812c2.32878 -0.712891 4.07552 -2.10352 5.24023 -4.17188c1.16471 -2.06771 1.39062 -4.26628 0.677734 -6.5957zM501.52 183.657l-125.305 -125.305
c-1.79688 -1.79688 -3.86003 -2.69531 -6.18945 -2.69531c-2.32878 0 -4.39193 0.898438 -6.18945 2.69531l-13.4473 13.4482c-1.79688 1.79688 -2.69531 3.8597 -2.69531 6.18848c0 2.32943 0.898438 4.39258 2.69531 6.18945l105.683 105.683l-105.683 105.684
c-1.79688 1.79688 -2.69531 3.8597 -2.69531 6.18848c0 2.32943 0.898438 4.39258 2.69531 6.18945l13.4473 13.4473c1.79753 1.79688 3.86068 2.69531 6.18945 2.69531c2.32943 0 4.39258 -0.898438 6.18945 -2.69531l125.305 -125.305
c1.79688 -1.79688 2.69531 -3.8597 2.69531 -6.18848c0 -2.32943 -0.898438 -4.39258 -2.69531 -6.18945v-0.0302734z" />
    <glyph glyph-name="uniF10B" unicode="&#xf10b;" 
d="M512 91.4238v-91.4238c0 -7.61589 -2.66667 -14.0905 -8 -19.4238s-11.8079 -8 -19.4238 -8h-91.4238c-7.61654 0 -14.0915 2.66667 -19.4248 8s-8 11.8079 -8 19.4238v91.4238c0 7.61589 2.66667 14.0905 8 19.4238s11.8083 8 19.4248 8h27.4238v54.8643h-146.288
v-54.8643h27.4238c7.61589 0 14.0905 -2.66667 19.4238 -8s8 -11.8079 8 -19.4238v-91.4238c0 -7.61589 -2.66667 -14.0905 -8 -19.4238s-11.8079 -8 -19.4238 -8h-91.4238c-7.61589 0 -14.0905 2.66667 -19.4238 8s-8 11.8079 -8 19.4238v91.4238
c0 7.61589 2.66667 14.0905 8 19.4238s11.8079 8 19.4238 8h27.4238v54.8643h-146.288v-54.8643h27.4238c7.61654 0 14.0915 -2.66667 19.4248 -8s8 -11.8079 8 -19.4238v-91.4238c0 -7.61589 -2.66667 -14.0905 -8 -19.4238s-11.8083 -8 -19.4248 -8h-91.4238
c-7.61589 0 -14.0905 2.66667 -19.4238 8c-5.33333 5.33333 -8 11.8079 -8 19.4238v91.4238c0 7.61589 2.66667 14.0905 8 19.4238c5.33333 5.33333 11.8079 8 19.4238 8h27.4238v54.8643c0 9.90951 3.62142 18.4801 10.8643 25.7119
c7.24284 7.23242 15.8135 10.8538 25.7119 10.8643h146.288v54.8643h-27.4238c-7.61589 0 -14.0905 2.66667 -19.4238 8s-8 11.8079 -8 19.4238v91.4238c0 7.61589 2.66667 14.0905 8 19.4238s11.8079 8 19.4238 8h91.4238c7.61589 0 14.0905 -2.66667 19.4238 -8
s8 -11.8079 8 -19.4238v-91.4238c0 -7.61589 -2.66667 -14.0905 -8 -19.4238s-11.8079 -8 -19.4238 -8h-27.4238v-54.8643h146.288c9.90951 0 18.4801 -3.62142 25.7119 -10.8643s10.8532 -15.8135 10.8643 -25.7119v-54.8643h27.4238
c7.61589 0 14.0905 -2.66667 19.4238 -8s8 -11.8079 8 -19.4238z" />
    <glyph glyph-name="uniF122" unicode="&#xf122;" 
d="M430.719 448c45.9863 -0.835938 80.125 -35.5225 81.2812 -81.2803v-347.213c0 -44.8896 -36.3916 -81.2793 -81.2803 -81.2793h-349.439c-45.9863 0.835938 -80.124 35.5225 -81.2803 81.2793v347.213c0.835938 45.9863 35.5225 80.124 81.2803 81.2803h349.438z
M218.005 351.122h-67.0967v-316.019h55.0312v229.659l88.4775 -229.659h66.6748v316.019h-55.0332v-229.657z" />
    <glyph glyph-name="uniF139" unicode="&#xf139;" 
d="M27.7598 162.688l34.4482 92.1279l192.848 -92.1279l-34.4316 -97.2969zM259.376 162.688l193.712 92.1279l38.752 -91.2646l-199.744 -97.2959zM-3.95215 332.608l196.304 100.735l62.8486 -80.0801l-192.849 -98.1436zM515.952 330.896l-62.8643 -75.7764
l-194.592 98.1436l65.4395 80.0801zM50.7998 138.352l173.696 -87.8076l29.0557 75.7764v-175.681l-203.408 94.2881zM260.656 126.32l26.9434 -75.9521l175.841 87.3594v-92.7832l-202.784 -94.2881v175.664z" />
    <glyph glyph-name="uniF120" unicode="&#xf120;" 
d="M430.719 448c45.9863 -0.835938 80.125 -35.5225 81.2812 -81.2803v-347.213c0 -44.8896 -36.3916 -81.2793 -81.2803 -81.2793h-349.439c-45.9863 0.835938 -80.124 35.5225 -81.2803 81.2793v347.213c0.835938 45.9863 35.5225 80.124 81.2803 81.2803h349.438z
M354.424 351.122h-196.85v-316.019h196.85v55.0342h-134.408v82.7607h121.708v55.0332h-121.708v68.1582h134.408v55.0322z" />
    <glyph glyph-name="uniF105" unicode="&#xf105;" 
d="M440.32 207.36h76.7998v-204.801h-512v204.801h76.7998v-128h358.4v128zM312.32 273.92h92.1602l-143.36 -148.132l-143.36 148.132h92.1602v102.4h102.4v-102.4z" />
    <glyph glyph-name="uniF13E" unicode="&#xf13e;" 
d="M402.288 164.576v-137.136c0 -4.94987 -1.80794 -9.23796 -5.42383 -12.8643c-3.61589 -3.62695 -7.90397 -5.4349 -12.8643 -5.42383h-109.712v109.712h-73.1357v-109.712h-109.712c-4.94987 0 -9.23796 1.80794 -12.8643 5.42383
c-3.62695 3.61589 -5.4349 7.90397 -5.42383 12.8643v137.136c0 0.192057 0.0478516 0.480143 0.143555 0.864258c0.0963542 0.383464 0.144531 0.671224 0.144531 0.863281l164.287 135.424l164.288 -135.424c0.192057 -0.384115 0.288086 -0.954753 0.288086 -1.71191z
M466 184.288l-17.7119 -21.1357c-1.52539 -1.71745 -3.52539 -2.76302 -6 -3.13672h-0.864258c-2.47461 0 -4.47461 0.666667 -6 2l-197.712 164.864l-197.712 -164.864c-2.28255 -1.52539 -4.57064 -2.19206 -6.86426 -2c-2.47461 0.384115 -4.47461 1.42969 -6 3.13672
l-17.7119 21.1357c-1.52539 1.90951 -2.19206 4.14941 -2 6.71973c0.192057 2.57096 1.2373 4.61914 3.13574 6.14453l205.425 171.136c6.09049 4.94922 13.3278 7.42383 21.7119 7.42383s15.6214 -2.47461 21.7119 -7.42383l69.7119 -58.2881v55.7119
c0 2.66667 0.858724 4.85872 2.57617 6.57617s3.90951 2.57617 6.57617 2.57617h54.8633c2.66667 0 4.85872 -0.858724 6.57617 -2.57617s2.57617 -3.90951 2.57617 -6.57617v-116.576l62.5762 -52c1.90885 -1.52539 2.9541 -3.57324 3.13574 -6.14355
c0.181641 -2.57096 -0.485026 -4.81087 -2 -6.71973v0.015625z" />
    <glyph glyph-name="uniF110" unicode="&#xf110;" 
d="M460.603 218.667v-53.334h-220.011c-8.65039 -85.877 -58.6982 -163.189 -134.938 -205.973c-4.12793 -2.32031 -8.6084 -3.41895 -13.0244 -3.41895c-9.33301 0 -18.3887 4.90625 -23.2744 13.6211c-7.21582 12.8535 -2.64551 29.0986 10.1973 36.3145
c67.2646 37.75 109.051 109.067 109.051 186.123c0 77.0615 -41.7861 148.379 -109.062 186.128c-12.8369 7.21094 -17.4131 23.4668 -10.2021 36.3096c7.21094 12.8369 23.4561 17.4131 36.3145 10.2021c76.2402 -42.7891 126.288 -120.096 134.938 -205.973h220.011z" />
    <glyph glyph-name="uniF121" unicode="&#xf121;" 
d="M430.719 448c45.9863 -0.835938 80.125 -35.5225 81.2812 -81.2803v-347.213c0 -44.8896 -36.3916 -81.2793 -81.2803 -81.2793h-349.439c-45.9863 0.835938 -80.124 35.5225 -81.2803 81.2793v347.213c0.835938 45.9863 35.5225 80.124 81.2803 81.2803h349.438z
M350.085 350.009h-188.172v-55.0332h62.8652v-205.951h-62.8652v-55.0332h188.172v55.0332h-62.8652v205.951h62.8652v55.0332z" />
    <glyph glyph-name="uniF12A" unicode="&#xf12a;" 
d="M212 -1.42383l-186.288 186c-7.05078 7.05078 -10.5762 15.6693 -10.5762 25.8555c0 10.1868 3.52539 18.8057 10.5762 25.8564l186.288 186c7.05078 7.05078 15.6696 10.5762 25.8564 10.5762c10.1862 0 18.8047 -3.52539 25.8555 -10.5762l21.4238 -21.4238
c7.05078 -7.05078 10.5762 -15.6696 10.5762 -25.8564s-3.52539 -18.8053 -10.5762 -25.8555l-138.863 -138.864l138.863 -138.576c7.05078 -7.24284 10.5762 -15.9095 10.5762 -26s-3.52539 -18.6611 -10.5762 -25.7119l-21.4238 -21.4238
c-7.05078 -7.05078 -15.6693 -10.5762 -25.8555 -10.5762c-10.1868 0 -18.8057 3.52539 -25.8564 10.5762z" />
    <glyph glyph-name="uniF13F" unicode="&#xf13f;" 
d="M256 -64c-141.152 0 -256 114.848 -256 256s114.848 256 256 256s256 -114.848 256 -256s-114.848 -256 -256 -256zM256 432c-132.336 0 -240 -107.664 -240 -240s107.664 -240 240 -240s240 107.664 240 240s-107.664 240 -240 240zM320.976 99.7119l-78.6396 78.624
c-1.48828 1.50391 -2.33594 3.53613 -2.33594 5.66406v114.896c0 4.41504 3.58398 8 8 8s8 -3.58496 8 -8v-111.585l76.3037 -76.2871c3.12012 -3.12012 3.12012 -8.19238 0 -11.3125c-1.56738 -1.55176 -3.61523 -2.33594 -5.66406 -2.33594
c-2.04785 0 -4.0957 0.767578 -5.66406 2.33594zM48 192c0 8.83203 7.16797 16 16 16s16 -7.16797 16 -16s-7.16797 -16 -16 -16s-16 7.16797 -16 16zM432 192c0 8.83203 7.16797 16 16 16s16 -7.16797 16 -16s-7.16797 -16 -16 -16s-16 7.16797 -16 16zM240 384
c0 8.83203 7.16797 16 16 16s16 -7.16797 16 -16s-7.16797 -16 -16 -16s-16 7.16797 -16 16zM240 0c0 8.83203 7.16797 16 16 16s16 -7.16797 16 -16s-7.16797 -16 -16 -16s-16 7.16797 -16 16zM112 320c0 8.83203 7.16797 16 16 16s16 -7.16797 16 -16
s-7.16797 -16 -16 -16s-16 7.16797 -16 16zM368 64c0 8.83203 7.16797 16 16 16s16 -7.16797 16 -16s-7.16797 -16 -16 -16s-16 7.16797 -16 16zM384 320c0 8.83203 7.16797 16 16 16s16 -7.16797 16 -16s-7.16797 -16 -16 -16s-16 7.16797 -16 16zM112 64
c0 8.83203 7.16797 16 16 16s16 -7.16797 16 -16s-7.16797 -16 -16 -16s-16 7.16797 -16 16z" />
    <glyph glyph-name="uniF102" unicode="&#xf102;" 
d="M511.446 382.208c0 -36.0322 -29.1992 -65.2441 -65.2715 -65.2441c-36.0244 0 -65.2285 29.2109 -65.2285 65.2441c0 36.083 29.2041 65.292 65.2285 65.292c36.0723 0 65.2715 -29.209 65.2715 -65.292zM343.677 97.2598
c5.625 0.793945 9.2627 1.81641 10.4551 3.01172c0.578125 0.398438 1.37598 1.02246 1.59668 1.02246v-0.216797l-0.220703 -12.0205v-1.41797v-3.58789c0 -5.23047 0 -5.84961 -1.37598 -8.46094c-5.00977 -9.4043 -17.6777 -15.8242 -30.8828 -15.8242
c-11.833 0 -18.4805 6.20312 -18.4805 17.6338c0 9.62012 6.42871 15.0703 20.4775 17.0664zM446.175 159.35c0 -123.077 -99.7539 -222.85 -222.809 -222.85c-123.063 0 -222.813 99.7715 -222.813 222.85c0 123.091 99.75 222.858 222.813 222.858
c123.055 0 222.809 -99.7686 222.809 -222.858zM164.024 65.3916h-73.0254v126.54h-19.8525v-144.006h92.8779v17.4658zM265.903 152.839h-17.8535v-59.7949v-1.8125c0 -5.58398 -3.01855 -14.6279 -6.82715 -20.2578
c-4.43262 -6.77539 -12.4512 -10.8125 -21.2705 -10.8125c-14.0488 0 -21.0459 7.39551 -21.0459 22.4678v70.21h-17.8652v-76.4131v-1.63379c0 -17.6455 14.2725 -29.877 34.5244 -29.877c15.417 0 25.832 5.80371 33.2812 18.2598v-15.25h17.0557v104.914h0.000976562z
M385.424 60.9551c-2.83594 -0.574219 -4.21582 -0.793945 -5.85059 -0.793945c-3.98633 0 -5.80859 1.81543 -5.80859 6.19922v59.9736c0 18.4805 -14.8428 29.5234 -39.7061 29.5234c-27.2529 0 -41.5176 -11.6621 -42.499 -34.9336h16.4473
c1.99219 14.2773 9.20898 20.2607 24.0576 20.2607c16.2188 0 24.2832 -5.98242 24.2832 -17.6455c0 -10.8145 -1.41699 -11.6084 -30.3125 -14.6221c-9.83691 -0.802734 -13.0254 -1.42188 -18.0273 -3.01855c-13.6484 -4.42871 -21.6738 -15.6465 -21.6738 -30.0947
c0 -19.2314 13.2549 -30.8906 35.0986 -30.8906c13.4307 0 22.6396 4.43164 35.7158 16.8467c0.572266 -10.6436 6.20215 -15.8242 16.8428 -15.8242c3.98145 0 6.02344 0.399414 11.4336 1.9873v13.0322h-0.000976562zM380.945 251.677
c0 36.0371 -29.2441 65.2881 -65.2744 65.2881c-36.0264 0 -65.2705 -29.251 -65.2705 -65.2881c0 -36.0342 29.2441 -65.2852 65.2705 -65.2852c36.0303 0 65.2744 29.251 65.2744 65.2852z" />
    <glyph glyph-name="uniF114" unicode="&#xf114;" 
d="M256 400c114.88 0 208 -93.1201 208 -208s-93.1201 -208 -208 -208s-208 93.1201 -208 208s93.1201 208 208 208zM256 16c97.2002 0 176 78.7998 176 176s-78.7998 176 -176 176s-176 -78.7998 -176 -176s78.7998 -176 176 -176zM234.432 259.664
c5.10449 -5.47168 9.16797 -12.1279 12.1602 -19.9678c2.99219 -7.85645 4.49609 -15.7441 4.49609 -23.6807c0 -16.7676 -5.45605 -33.7598 -16.3994 -50.9434c-10.9287 -17.2158 -25.585 -31.8086 -43.9209 -43.8086
c-15.5195 -10.2393 -27.6953 -15.3438 -36.5117 -15.3438c-3.53613 0 -6.44824 1.08789 -8.73633 3.2959c-2.30371 2.19238 -3.43945 4.97656 -3.43945 8.33594c0 5.2959 3.34375 9.69629 10.0635 13.2324c16.0801 8.27148 27.8242 16.4961 35.248 24.6074
c7.07227 7.58398 10.6084 13.1367 10.6084 16.6729c0 3.34375 -2.65625 5.37598 -7.95215 6.0791l-3.43945 0.544922l-3.98438 0.255859c-11.4883 1.75977 -20.7998 7.08789 -27.9521 16c-7.13574 8.91211 -10.7197 19.7275 -10.7197 32.4316
c0 6.16016 1.2002 12.2559 3.56738 18.2559c2.38477 6 5.61621 11.2002 9.66406 15.6162c10.0322 10.7676 22.832 16.1436 38.3525 16.1436c15.168 0 28.1123 -5.90332 38.8955 -17.7275zM360.368 259.664c5.12012 -5.47168 9.16797 -12.1279 12.1279 -19.9678
c2.99219 -7.85645 4.47949 -15.7441 4.47949 -23.6807c0 -16.7676 -5.42383 -33.7598 -16.2393 -50.9434c-10.8164 -17.2158 -25.3926 -31.8086 -43.7119 -43.8086c-15.4727 -10.2393 -27.6328 -15.3438 -36.4326 -15.3438c-3.51953 0 -6.41602 1.08789 -8.71973 3.2959
c-2.28809 2.19238 -3.44043 4.97656 -3.44043 8.33594c0 5.2959 3.34473 9.69629 10.0488 13.2324c16.1758 8.63965 27.8877 16.8477 35.1035 24.6074c6.86426 7.58398 10.3037 13.1367 10.3037 16.6729c0 3.34375 -2.63965 5.37598 -7.91992 6.0791l-3.15137 0.544922
l-4.22461 0.255859c-11.4238 1.58398 -20.6875 6.87988 -27.7119 15.8721c-7.02344 8.99121 -10.5439 19.8555 -10.5439 32.5596c0 6 1.18359 12.0322 3.56836 18.1279c2.38379 6.08008 5.58398 11.3281 9.64746 15.7441c9.85645 10.7676 22.624 16.1436 38.2881 16.1436
c14.96 0 27.8086 -5.90332 38.5283 -17.7275z" />
    <glyph glyph-name="uniF115" unicode="&#xf115;" 
d="M120.471 327.529c0 9.4974 -3.36328 17.609 -10.0898 24.335c-6.72591 6.72656 -14.8376 10.0898 -24.335 10.0898c-9.49674 0 -17.6084 -3.36328 -24.335 -10.0898c-6.72591 -6.72591 -10.0889 -14.8376 -10.0889 -24.335c0 -9.49674 3.36296 -17.6084 10.0889 -24.335
c6.72656 -6.72656 14.8382 -10.0898 24.335 -10.0898c9.4974 0 17.609 3.36328 24.335 10.0898c6.72656 6.72656 10.0898 14.8382 10.0898 24.335zM407.401 172.635c0 -9.4974 -3.31803 -17.5641 -9.9541 -24.2002l-132.035 -132.307
c-6.98763 -6.63607 -15.1445 -9.9541 -24.4707 -9.9541c-9.4974 0 -17.5641 3.31803 -24.2002 9.9541l-192.271 192.542c-6.81641 6.63607 -12.599 15.6914 -17.3477 27.166c-4.7487 11.4753 -7.12305 21.9613 -7.12305 31.458v111.872
c0 9.32682 3.4082 17.3932 10.2246 24.1992c6.81706 6.80664 14.8838 10.2152 24.2002 10.2256h111.872c9.49674 0 19.9824 -2.37435 31.457 -7.12305c11.4753 -4.7487 20.6162 -10.5312 27.4229 -17.3477l192.271 -192c6.63607 -6.98763 9.9541 -15.1445 9.9541 -24.4707
v-0.0146484zM510.66 172.635c0 -9.4974 -3.31803 -17.5641 -9.9541 -24.2002l-132.036 -132.307c-6.98698 -6.63607 -15.1439 -9.9541 -24.4707 -9.9541c-6.45508 0 -11.7458 1.25488 -15.8721 3.76465c-4.12565 2.50977 -8.87402 6.54557 -14.2451 12.1074l126.389 126.389
c6.63607 6.63607 9.9541 14.7028 9.9541 24.2002c0 9.32617 -3.31803 17.4827 -9.9541 24.4697l-192.271 192c-6.81641 6.81706 -15.957 12.5999 -27.4219 17.3486c-11.4648 4.74805 -21.9508 7.12207 -31.458 7.12207h60.2354c9.4974 0 19.9834 -2.37402 31.458 -7.12207
c11.4746 -4.7487 20.6152 -10.5316 27.4219 -17.3486l192.271 -192c6.63607 -6.98698 9.9541 -15.1436 9.9541 -24.4697z" />
    <glyph glyph-name="uniF127" unicode="&#xf127;" 
d="M256 448v-0.015625l10.6084 -2.14453l14.4951 -14.4961c4.78418 -23.6641 2.14453 -6.99219 2.14453 -50.5918c29.6162 -6.0957 15.0879 -2.20801 43.584 -11.6484c21.7441 37.7764 11.0879 24.6885 27.1357 42.7207l19.8086 5.2959
c13.6797 -4.6084 7.55176 -1.07227 18.3994 -10.6084l5.3125 -19.7754c-7.69629 -22.8799 -1.64844 -7.10449 -23.4883 -44.96c22.416 -20.0166 11.8076 -9.4082 31.8242 -31.8242c37.8398 21.8555 22.0635 15.7754 44.9434 23.5039l19.792 -5.32812
c9.52051 -10.8477 6 -4.71973 10.5928 -18.4004l-5.2959 -19.792c-18.0322 -16.0791 -4.95996 -5.3916 -42.7207 -27.2471c5.44043 -13.7285 9.48828 -28.3203 11.6484 -43.4727h40c15.0234 0 27.2158 -12.208 27.2158 -27.248
c0 -15.0234 -12.208 -27.2314 -27.2324 -27.2314h-40c-2.15918 -15.1523 -6.20801 -29.7441 -11.6475 -43.4727c37.7598 -21.8555 24.6875 -11.168 42.7197 -27.248l5.2959 -19.792c-4.60742 -13.6797 -1.07129 -7.55176 -10.5918 -18.3994l-19.792 -5.3125
c-22.8799 7.69629 -7.10352 1.63184 -44.9443 23.4883c-9.37598 -11.7764 -20.0479 -22.4482 -31.8232 -31.8242c21.8555 -37.8398 15.7754 -22.0635 23.5039 -44.9434l-5.32812 -19.792c-10.8486 -9.52051 -4.71973 -5.98438 -18.4004 -10.5928l-19.8076 5.2959
c-16.0479 18.0166 -5.39258 4.94434 -27.1201 42.7207c-28.4961 -9.44043 -13.9844 -5.53613 -43.584 -11.6484v-40l-2.14453 -10.5918l-14.4951 -14.4961l-10.6084 -2.14355c-15.0244 0 -27.2324 12.208 -27.2324 27.2314v40
c-29.5996 6.1123 -15.0879 2.20801 -43.584 11.6484c-21.7275 -37.7607 -11.0713 -24.6885 -27.1357 -42.7041l-19.792 -5.2959c-13.6797 4.60742 -7.55176 1.07129 -18.3994 10.5918l-5.32812 19.792c7.71191 22.8799 1.64746 7.10352 23.5039 44.9443
c-22.416 20.0156 -11.8086 9.40723 -31.8242 31.8232c-37.8564 -21.8555 -22.0801 -15.7754 -44.96 -23.5039l-19.7764 5.32812c-9.53613 10.8486 -6 4.71973 -10.6074 18.4004l5.2959 19.792c18.0322 16.0801 4.95996 5.3916 42.7197 27.248
c-9.45605 28.3994 -5.55176 13.9199 -11.6475 43.4717h-40l-10.5928 2.14453l-14.4961 14.4951c-2.86328 14.1279 -2.86328 7.07227 0 21.2002l14.4961 14.4961c23.6641 4.78418 6.99219 2.14453 50.5928 2.14453c6.0957 29.5674 2.19141 15.0713 11.6475 43.4717
c-37.7764 21.8555 -24.6875 11.168 -42.7197 27.248l-5.2959 19.792c4.60742 13.6797 1.07129 7.55176 10.6074 18.3994l19.7764 5.32812c22.8799 -7.72754 7.10352 -1.64746 44.96 -23.5039c20.0156 22.416 9.4082 11.8086 31.8242 31.8242
c-21.8564 37.8564 -15.7764 22.0801 -23.5039 44.96l5.32812 19.7764c10.8477 9.53613 4.71973 6 18.3994 10.6074l19.792 -5.2959c16.0645 -18.0156 5.4082 -4.94336 27.1357 -42.7197c28.4961 9.43945 13.9844 5.53613 43.584 11.6475v40l2.14453 10.5928l14.4961 14.4961
zM256.736 288.464c-23.7764 -0.015625 -47.792 -8.0957 -63.9844 -26.0957c-31.2324 -34.7041 -32.5117 -108.304 0.912109 -142.16c27.1035 -27.4561 71.7598 -28.1924 107.2 -21.2324c15.3438 3.00879 19.4395 5.08887 34.1279 10.3359v44.1289
c-22.5918 -13.6963 -40.4482 -17.9844 -66.2725 -19.8564c-32.4473 1.58398 -47.6641 9.24805 -50.5439 42.9922h124.528v19.5195c-0.160156 24.2246 -5.55176 49.9199 -22.5605 68.1602c-3.71191 3.98438 -7.58398 8.1123 -12.416 10.5918
c-10.0635 5.16797 -21.1357 8.06445 -31.7119 12.0967zM256.736 251.216c11.04 -0.112305 26.8633 -4 31.9521 -15.2158c5.40723 -11.8877 4.73535 -12.4961 5.61523 -23.3438l-75.6318 -0.160156c1.13574 10.8154 6.35254 27.6162 16.9922 33.04
c4.19238 2.14355 8.7998 3.37598 13.2158 5.05566z" />
    <glyph glyph-name="uniF137" unicode="&#xf137;" 
d="M17.2285 408.714c14.249 3.86133 28.9434 -4.60742 32.7939 -19.0459l103.828 -391.307c3.81934 -14.4229 -4.58203 -29.2559 -18.8975 -33.1055c-14.2129 -3.87109 -28.9385 4.68945 -32.7891 19.1074l-103.792 391.291
c-3.8457 14.4795 4.60742 29.2148 18.8564 33.0596zM74.2402 377.743c6.94238 12.0068 71.6797 111.765 182.835 41.5234c111.37 -70.2158 183.839 -120.396 231.885 -36.4033c0 0 -12.001 -67.9932 -32.6191 -104.033
c-20.5879 -36.0449 -85.1406 -85.4062 -165.064 -64.3838c-73.9375 19.4502 -128.332 -10.5371 -150.477 -77.3428c0 0 -61.2861 221.87 -66.5596 240.64z" />
    <glyph glyph-name="uniF135" unicode="&#xf135;" 
d="M468.288 311.424c7.61589 -10.8587 9.3278 -23.1468 5.13574 -36.8643l-78.5762 -258.863c-3.61589 -12.1921 -10.901 -22.4323 -21.8555 -30.7207c-10.9551 -8.28776 -22.6243 -12.4316 -35.0078 -12.4316h-263.712c-14.6667 0 -28.8109 5.09342 -42.4326 15.2803
c-13.6211 10.1862 -23.0983 22.7087 -28.4316 37.5674c-4.57617 12.7578 -4.76823 24.8538 -0.576172 36.2881c0 0.757812 0.288086 3.32845 0.864258 7.71191c0.575521 4.38411 0.954102 7.90951 1.13574 10.5762c0.192057 1.52539 -0.0960286 3.57357 -0.864258 6.14453
c-0.767578 2.57031 -1.05566 4.42611 -0.864258 5.56738c0.384115 2.09115 1.14681 4.09115 2.28809 6c1.14128 1.90951 2.71484 4.14974 4.7207 6.7207c2.00521 2.57031 3.57845 4.81022 4.71973 6.71973c4.38411 7.24284 8.6722 15.9574 12.8643 26.1436
c4.19206 10.1868 7.05078 18.9017 8.57617 26.1445c0.575521 1.90951 0.623372 4.76823 0.143555 8.57617s-0.527669 6.47461 -0.143555 8c0.575521 2.09049 2.19661 4.75716 4.86328 8c2.66667 3.24219 4.28809 5.43392 4.86426 6.5752c4 6.85872 8 15.6214 12 26.2881
s6.37858 19.2373 7.13574 25.7119c0.192057 1.71745 -0.0478516 4.76302 -0.719727 9.13672c-0.671875 4.37305 -0.624023 7.03971 0.143555 8c0.757812 2.47461 2.85384 5.38118 6.28809 8.71973c3.4349 3.33854 5.53092 5.48242 6.28809 6.43164
c3.61589 4.94987 7.66406 12.998 12.1445 24.1445c4.47982 11.1465 7.09831 20.3356 7.85547 27.5674c0.192057 1.52539 -0.0957031 3.95215 -0.863281 7.28027c-0.768229 3.32812 -0.960286 5.85091 -0.576172 7.56836c0.384115 1.52539 1.24284 3.2373 2.57617 5.13574
s3.04525 4.09049 5.13574 6.57617c2.09049 2.48503 3.71191 4.48503 4.86426 6c1.52474 2.28255 3.09798 5.18913 4.71973 8.71973c1.62109 3.5306 3.05046 6.86393 4.28809 10c1.23698 3.13607 2.76237 6.56543 4.57617 10.2881
c1.81315 3.72266 3.66895 6.7679 5.56738 9.13574c1.89909 2.36849 4.42188 4.60872 7.56836 6.7207s6.57585 3.20508 10.2881 3.2793c3.71159 0.0748698 8.23405 -0.447591 13.5674 -1.56738l-0.288086 -0.864258c7.24284 1.71745 12.1016 2.57617 14.5762 2.57617h217.424
c14.0911 0 24.9499 -5.33333 32.5762 -16c7.62695 -10.6667 9.33919 -23.0452 5.13672 -37.1357l-78.2881 -258.864c-6.85872 -22.6667 -13.6696 -37.2855 -20.4326 -43.8564c-6.76237 -6.57031 -19.0023 -9.85547 -36.7197 -9.85547h-248.288
c-5.14128 0 -8.7627 -1.42936 -10.8643 -4.28809c-2.09049 -3.05078 -2.18652 -7.14681 -0.288086 -12.2881c4.57617 -13.3333 18.2884 -20 41.1367 -20h263.712c5.52539 0 10.8587 1.47721 16 4.43164c5.14128 2.95508 8.47461 6.90723 10 11.8564l85.7119 282
c1.33333 4.19206 1.80794 9.62142 1.42383 16.2881c7.24284 -2.85872 12.8643 -6.95475 16.8643 -12.2881zM164.288 310.864c-0.757161 -2.47461 -0.565104 -4.61882 0.576172 -6.43262c1.14128 -1.81315 3.04525 -2.71973 5.71191 -2.71973h173.712
c2.47461 0 4.90137 0.906576 7.28027 2.71973c2.37826 1.8138 3.9515 3.95801 4.71973 6.43262l6 18.2881c0.757161 2.47461 0.565104 4.61849 -0.576172 6.43164s-3.04525 2.71973 -5.71191 2.71973h-173.712c-2.47461 0 -4.90137 -0.906576 -7.28027 -2.71973
c-2.37826 -1.81315 -3.9515 -3.95703 -4.71973 -6.43164zM140.576 237.712c-0.757161 -2.47461 -0.565104 -4.61849 0.576172 -6.43164c1.14128 -1.8138 3.04525 -2.7207 5.71191 -2.7207h173.712c2.47461 0 4.90137 0.906901 7.28027 2.7207
c2.37826 1.81315 3.9515 3.95703 4.71973 6.43164l6 18.2881c0.757161 2.47461 0.565104 4.61849 -0.576172 6.43164c-1.14128 1.8138 -3.04525 2.7207 -5.71191 2.7207h-173.712c-2.47461 0 -4.90137 -0.906901 -7.28027 -2.7207
c-2.37891 -1.81315 -3.95215 -3.95703 -4.71973 -6.43164z" />
    <glyph glyph-name="uniF141" unicode="&#xf141;" 
d="M256 448c88.3682 0 160 -71.6318 160 -160c0 -160 -160 -352 -160 -352s-160 192 -160 352c0 88.3682 71.6318 160 160 160zM256 192c53.0244 0 96 42.9756 96 96s-42.9756 96 -96 96s-96 -42.9756 -96 -96s42.9756 -96 96 -96z" />
    <glyph glyph-name="uniF138" unicode="&#xf138;" 
d="M512 109.712v-54.8643c0 -2.47461 -0.906576 -4.61849 -2.71973 -6.43164c-1.8138 -1.81315 -3.95801 -2.71973 -6.43262 -2.71973h-393.136v-54.8643c0 -2.47461 -0.906576 -4.61849 -2.71973 -6.43164c-1.81315 -1.8138 -3.95736 -2.7207 -6.43262 -2.7207
c-2.28255 0 -4.57031 0.954753 -6.86328 2.86426l-91.1367 91.4238c-1.7168 1.71745 -2.5752 3.81348 -2.5752 6.28809c0 2.66667 0.858398 4.85872 2.5752 6.57617l91.4248 91.4238c1.7168 1.71745 3.90853 2.57617 6.5752 2.57617
c2.47526 0 4.61947 -0.906576 6.43262 -2.71973c1.81315 -1.8138 2.71973 -3.95801 2.71973 -6.43262v-54.8633h393.136c2.47461 0 4.61882 -0.906901 6.43262 -2.7207c1.81315 -1.81315 2.71973 -3.95703 2.71973 -6.43164v0.0478516zM512 265.136
c0 -2.66667 -0.858724 -4.85872 -2.57617 -6.57617l-91.4238 -91.4238c-1.71745 -1.71745 -3.90951 -2.57617 -6.57617 -2.57617c-2.47461 0 -4.61849 0.906901 -6.43164 2.7207c-1.81315 1.81315 -2.71973 3.95703 -2.71973 6.43164v54.8643h-393.137
c-2.47461 0 -4.61849 0.906576 -6.43164 2.71973c-1.81315 1.81315 -2.71973 3.95703 -2.71973 6.43164v54.8643c0 2.47461 0.906576 4.61882 2.71973 6.43262c1.81315 1.81315 3.95703 2.71973 6.43164 2.71973h393.137v54.8643c0 2.66667 0.858398 4.8584 2.5752 6.5752
c1.71745 1.71745 3.90951 2.57617 6.57617 2.57617c2.28255 0 4.57064 -0.954427 6.86426 -2.86328l91.1357 -91.1367c1.71745 -1.71745 2.57617 -3.90951 2.57617 -6.57617v-0.0478516z" />
    <glyph glyph-name="uniF144" unicode="&#xf144;" 
d="M210.752 81.248c-12.5013 12.5013 -18.752 27.584 -18.752 45.248s6.33594 32.832 19.0078 45.5039l272 181.008l-181.504 -272c-12.3307 -12.3307 -27.4134 -18.4961 -45.248 -18.4961c-17.8346 0 -33.0026 6.25065 -45.5039 18.752v-0.015625zM256 351.504
c-30.3359 0 -59.4186 -6 -87.248 -18s-51.7441 -28 -71.7441 -48s-35.9147 -43.8346 -47.7441 -71.5039s-17.7441 -56.6719 -17.7441 -87.0078c0 -35.3385 8 -69.0078 24 -101.008l-28 -14c-18.3359 36.3307 -27.5039 74.4961 -27.5039 114.496
c0 34.9967 6.75228 68.2445 20.2568 99.7432c13.5039 31.4987 31.6689 58.6667 54.4951 81.5039c22.8268 22.8379 50.0749 41.0033 81.7441 54.4961c31.6693 13.4935 64.8372 20.2458 99.5039 20.2568c53.6641 0 102.496 -15.3333 146.496 -46l-28.4961 -19.0088
c-36.3307 22.6667 -75.6641 34 -118 34zM466.496 272.496c30.3359 -44 45.5039 -92.6667 45.5039 -146c0 -40 -9.16797 -78.1654 -27.5039 -114.496l-28 14.4961c16 31.6693 24 65.168 24 100.496c0 41.6641 -11.0026 80.6667 -33.0078 117.008z" />
    <glyph glyph-name="uniF146" unicode="&#xf146;" 
d="M475.424 134.288c0 -15.4238 -4.23991 -28.2826 -12.7197 -38.5762c-8.47982 -10.293 -20.2399 -15.4342 -35.2803 -15.4238c-7.80794 0 -15.1891 1.66927 -22.1436 5.00781c-6.95508 3.33854 -12.5765 6.95996 -16.8643 10.8643
c-4.28776 3.90365 -9.66895 7.52507 -16.1436 10.8643c-6.47526 3.33854 -13.238 5.00781 -20.2881 5.00781c-20.9499 0 -31.4248 -11.8079 -31.4248 -35.4238c0 -7.42448 1.52539 -18.3792 4.57617 -32.8643c3.05078 -14.4857 4.48014 -25.4404 4.28809 -32.8643v-1.42383
c-4.19206 0 -7.33333 -0.0960286 -9.42383 -0.288086c-6.47461 -0.576172 -15.7601 -1.6696 -27.8564 -3.28027c-12.0957 -1.61068 -23.0983 -2.89583 -33.0078 -3.85547c-9.90885 -0.960286 -19.2422 -1.4349 -28 -1.42383c-11.6159 0 -21.4238 2.52246 -29.4238 7.56738
c-8 5.04557 -12 12.9977 -12 23.8564c0 7.05078 1.66927 13.8135 5.00781 20.2881s6.95996 11.8558 10.8643 16.1436c3.9043 4.28841 7.52572 9.90983 10.8643 16.8643s5.00781 14.3356 5.00781 22.1436c0 15.0508 -5.14128 26.8109 -15.4238 35.2803
s-23.1413 12.7093 -38.5762 12.7197c-16 0 -29.6214 -4.33594 -40.8643 -13.0078c-11.2428 -8.67188 -16.8643 -20.8158 -16.8643 -36.4316c0 -8.19206 1.42936 -16.096 4.28809 -23.7119s6.04818 -13.7601 9.56836 -18.4326
c3.52018 -4.67188 6.70964 -9.71712 9.56836 -15.1357s4.28809 -10.2292 4.28809 -14.4316c0 -8.57617 -4.37891 -17.0508 -13.1367 -25.4238c-7.05078 -6.66667 -18.1921 -10 -33.4238 -10c-18.0905 0 -41.4238 2.28776 -70 6.86328
c-1.71745 0.384115 -4.33594 0.763021 -7.85547 1.13672c-3.52018 0.373047 -6.139 0.751628 -7.85645 1.13574l-3.71191 0.576172c-0.192057 0 -0.480143 0.0960286 -0.864258 0.288086c-0.384115 0 -0.576172 0.0957031 -0.576172 0.287109v292.576
c0.384115 -0.192057 2.05371 -0.527995 5.00879 -1.00781c2.95443 -0.479818 6.19173 -0.954427 9.71191 -1.42383c3.51953 -0.469401 5.56738 -0.805339 6.14355 -1.00781c28.5762 -4.57617 51.9095 -6.86426 70 -6.86426c15.2428 0 26.3841 3.33333 33.4238 10
c8.75781 8.38411 13.1367 16.8587 13.1367 25.4238c0 4.19206 -1.42936 9.0026 -4.28809 14.4316c-2.85872 5.42969 -6.04818 10.4753 -9.56836 15.1367s-6.70964 10.8053 -9.56836 18.4316c-2.85872 7.62695 -4.28809 15.5309 -4.28809 23.7119
c0 15.6159 5.62142 27.7601 16.8643 36.4326c11.2428 8.67188 24.9548 13.0078 41.1357 13.0078c15.2428 0 28.0055 -4.24023 38.2881 -12.7207c10.2832 -8.47982 15.4248 -20.2396 15.4248 -35.2793c0 -7.80794 -1.6696 -15.1895 -5.00879 -22.1445
c-3.33854 -6.95443 -6.95964 -12.5755 -10.8633 -16.8633c-3.9043 -4.28841 -7.52572 -9.66992 -10.8643 -16.1445s-5.00781 -13.2373 -5.00781 -20.2881c0 -10.8587 4 -18.8105 12 -23.8555c8 -5.04557 17.8079 -7.56836 29.4238 -7.56836
c12.1921 0 29.3333 1.42936 51.4238 4.28809s37.6159 4.48014 46.5762 4.86426v-0.576172c-0.192057 -0.384115 -0.527995 -2.05339 -1.00781 -5.00781c-0.480469 -2.95508 -0.955078 -6.19238 -1.42383 -9.71191c-0.469401 -3.52018 -0.805664 -5.56836 -1.00879 -6.14453
c-4.57552 -28.5762 -6.86328 -51.9095 -6.86328 -70c0 -15.2428 3.33333 -26.3841 10 -33.4238c8.38346 -8.75716 16.8581 -13.1357 25.4238 -13.1357c4.19206 0 9.0026 1.42936 14.4316 4.28809c5.42969 2.85872 10.4749 6.04785 15.1357 9.56738
c4.66146 3.52018 10.8057 6.70964 18.4326 9.56836c7.6263 2.85872 15.5303 4.28809 23.7119 4.28809c15.6159 0 27.7598 -5.62142 36.4316 -16.8643s13.0078 -24.8643 13.0078 -40.8643z" />
    <glyph glyph-name="uniF103" unicode="&#xf103;" 
d="M234.834 100.393c1.32617 -1.4541 1.64844 -3.55762 0.808594 -5.34473c-0.844727 -1.77637 -2.67773 -2.85742 -4.63281 -2.74414l-100.982 5.73438c-0.358398 0.00488281 -0.72168 0.0664062 -1.05957 0.168945c-2.11426 0.603516 -3.60449 2.61621 -3.48145 4.91016
l5.66211 97.8223c0.107422 1.93555 1.3623 3.61523 3.2002 4.25977c1.80762 0.670898 3.83008 0.173828 5.16602 -1.26465zM192.497 102.901l6.46582 22.5332c0.727539 2.56543 -0.74707 5.2334 -3.30762 5.95996c-2.56445 0.737305 -5.22754 -0.757812 -5.95898 -3.30762
l-1.01953 -3.54297l-21.8721 6.25684l6.14355 21.3965c0.732422 2.56543 -0.751953 5.23242 -3.30762 5.96973c-2.5498 0.727539 -5.22168 -0.75293 -5.95898 -3.30762l-6.13379 -21.4014l-15.5957 4.4541c-2.56055 0.732422 -5.22754 -0.74707 -5.95508 -3.30762
c-0.737305 -2.55957 0.743164 -5.22754 3.30273 -5.95898l15.585 -4.45508l-2.78027 -9.74316c-0.736328 -2.55469 0.743164 -5.22266 3.30273 -5.94922c2.5498 -0.737305 5.21191 0.74707 5.95508 3.30762l2.79492 9.73242l21.8682 -6.25586l-2.7959 -9.72852
c-0.742188 -2.56445 0.742188 -5.22754 3.29688 -5.96484c2.56055 -0.72168 5.2334 0.748047 5.9707 3.3125zM291.445 247.905l-6.48633 -22.584l-21.8682 6.25098l6.47168 22.5898zM272.233 263.438l6.46875 22.6084l21.875 -6.25977l-6.46875 -22.6084zM282.307 216.044
l-6.48242 -22.585l-21.877 6.25195l6.48633 22.584zM250.234 304.207l6.46387 22.5879l21.8701 -6.25781l-6.46387 -22.5889zM241.099 272.338l6.46777 22.6035l21.8506 -6.25293l-6.46875 -22.6035zM309.725 311.645l-6.47168 -22.5947l-21.8887 6.26172l6.4873 22.584z
M340.864 302.74l-6.4873 -22.5947l-21.873 6.25684l6.4873 22.5947zM303.379 254.532l6.46094 22.6055l21.877 -6.25293l-6.46094 -22.6055zM294.249 222.679l6.45508 22.5859l21.877 -6.25293l-6.45508 -22.5859zM313.446 207.145l-6.4873 -22.5889l-21.8672 6.25098
l6.4873 22.5898zM238.311 297.59l-6.4873 -22.6045l-21.8721 6.25586l6.48633 22.5996zM156.838 330.928l6.46289 22.5938l21.8652 -6.25391l-6.46289 -22.5938zM125.697 339.809l6.46191 22.6016l21.8818 -6.25684l-6.46191 -22.6006zM447.406 377.861
c34.457 -9.86133 49.3672 -35.5742 43.8682 -54.7432l-11.126 -38.7939l-75.5146 -263.24c-4.34668 -15.1807 -12.4414 -43.4121 -67.5078 -27.6738l-126.668 36.2246l-150.984 8.56543c-0.363281 0.015625 -0.726562 0.0722656 -1.06934 0.168945
c-2.09961 0.609375 -3.59473 2.62109 -3.46191 4.91504l1.75098 30.3154l-31.2725 8.93945c-2.55469 0.737305 -4.03418 3.40527 -3.30762 5.96484l44.4004 154.799l6.58496 113.597c0.112305 1.93555 1.36133 3.62012 3.18945 4.26074
c1.80762 0.680664 3.85059 0.168945 5.1709 -1.25977l14.1113 -15.3242l13.1787 45.957c0.737305 2.55957 3.39941 4.04492 5.9541 3.3125l256.671 -73.3955l16.5938 57.8105c0.456055 1.5918 1.67969 2.82617 3.25098 3.30176
c0.880859 0.256836 21.5918 6.19043 56.1875 -3.70117zM124.236 369.705l-9.20508 -32.0459c-0.732422 -2.56055 0.751953 -5.2334 3.3125 -5.96484c0.327148 -0.0927734 0.645508 -0.0566406 0.988281 -0.0771484l25.5645 -7.31152l-6.29785 -21.9902
c-0.737305 -2.55469 0.742188 -5.22266 3.30176 -5.96484c2.56543 -0.732422 5.2334 0.757812 5.96484 3.31836l6.30859 21.9844l21.8564 -6.25098l-11.5967 -40.4531c-0.737305 -2.56055 0.737305 -5.23242 3.30273 -5.96484
c2.55957 -0.732422 5.22754 0.757812 5.95996 3.31738l2.45703 8.57617l21.8779 -6.26172l-7.80762 -27.2285c-0.732422 -2.54883 0.74707 -5.22168 3.30762 -5.9541l26.4902 -7.57715l-3.79883 -13.2715c-0.732422 -2.55957 0.742188 -5.22266 3.29688 -5.9541
c2.56055 -0.732422 5.2334 0.751953 5.9707 3.3125l3.80371 13.2607l21.873 -6.25195l-7.80859 -27.2275c-0.737305 -2.56543 0.743164 -5.22754 3.30273 -5.95996l26.5059 -7.57812l-5.4375 -18.9492c-0.726562 -2.55957 0.75293 -5.22754 3.31348 -5.95898
c2.55469 -0.737305 5.21191 0.751953 5.9541 3.3125l5.4375 18.9443l21.8672 -6.25195l-10.7461 -37.4629c-0.727539 -2.55469 0.751953 -5.22266 3.30176 -5.96484c2.56543 -0.732422 5.23242 0.75293 5.97559 3.31738l48.624 169.554
c0.737305 2.55566 -0.751953 5.22266 -3.30176 5.96484l-217.959 62.3213c-2.55957 0.732422 -5.22754 -0.75293 -5.95996 -3.30762zM56.6318 99.082l5.25391 18.3096c0.731445 2.56445 -0.743164 5.23242 -3.30762 5.95898
c-2.5498 0.732422 -5.22266 -0.756836 -5.95508 -3.30664l-5.25293 -18.2988c-0.732422 -2.56543 0.748047 -5.2334 3.30762 -5.9707c2.55957 -0.726562 5.23242 0.75293 5.9541 3.30762zM64.8447 47.5596l307.047 -17.418l-37.8018 41.0518
c-16.8906 1.70508 -26.6494 -0.880859 -26.7773 -0.911133c-1.69922 -0.491211 -3.51758 -0.0302734 -4.75586 1.21387c-1.24512 1.22852 -1.71582 3.0459 -1.22461 4.73535l6.67676 23.2959l-13.0967 14.2285l-11.3867 -10.1523
c-1.27051 -1.15234 -3.00098 -1.49023 -4.54199 -1.04492c-0.839844 0.250977 -1.63281 0.716797 -2.25781 1.42871c-1.77148 1.98145 -1.6123 5.02246 0.389648 6.79883l11.2637 10.0615l-12.3389 13.4141l-11.3359 -10.1221
c-1.28516 -1.1416 -3.00586 -1.46973 -4.54688 -1.03418c-0.844727 0.235352 -1.62793 0.701172 -2.25781 1.42285c-1.77637 1.9873 -1.5918 5.0332 0.394531 6.80957l11.2178 10.0049l-12.3389 13.4043l-11.2744 -10.0508
c-1.27539 -1.14648 -3.00586 -1.47949 -4.54688 -1.04492c-0.829102 0.246094 -1.62305 0.722656 -2.25293 1.42871c-1.7666 1.98145 -1.60254 5.02832 0.394531 6.80469l11.1562 9.95312l-12.3438 13.415l-11.2334 -10.0205
c-1.27539 -1.1416 -3.00098 -1.46875 -4.54199 -1.03418c-0.839844 0.246094 -1.63281 0.707031 -2.2627 1.42383c-1.7666 1.98633 -1.59277 5.03223 0.394531 6.80371l11.1104 9.92285l-12.3496 13.4043l-11.1719 -9.97363c-1.26953 -1.1416 -3 -1.47461 -4.54199 -1.03418
c-0.838867 0.245117 -1.62305 0.711914 -2.25781 1.41797c-1.76562 1.99219 -1.60254 5.03809 0.389648 6.81445l11.0645 9.86621l-12.3496 13.4199l-11.1152 -9.92773c-1.28027 -1.13672 -3.00586 -1.46387 -4.54688 -1.0293
c-0.839844 0.235352 -1.63379 0.707031 -2.2627 1.41309c-1.7666 1.9873 -1.58789 5.04395 0.393555 6.80957l11.0137 9.81543l-12.3496 13.4189l-11.0645 -9.88086c-1.28516 -1.14746 -3 -1.47949 -4.54102 -1.04004
c-0.845703 0.246094 -1.63379 0.711914 -2.25879 1.42871c-1.77637 1.98145 -1.60742 5.03809 0.389648 6.80469l10.9512 9.77441l-12.3486 13.4092l-11.0029 -9.8252c-1.28027 -1.14746 -3.01074 -1.48047 -4.54688 -1.04004
c-0.839844 0.246094 -1.62305 0.716797 -2.2627 1.42383c-1.7666 1.98633 -1.59766 5.03809 0.393555 6.81445l10.9004 9.71777l-12.3486 13.4199l-10.9619 -9.78418c-1.27051 -1.13672 -3.01074 -1.47461 -4.54199 -1.03418
c-0.844727 0.240234 -1.62793 0.710938 -2.2627 1.42773c-1.77148 1.98145 -1.60254 5.02832 0.393555 6.80469l10.8447 9.67676l-12.3447 13.4043l-10.9004 -9.72754c-1.27441 -1.14258 -3 -1.47461 -4.54102 -1.03516
c-0.850586 0.236328 -1.63379 0.707031 -2.26367 1.42383c-1.77148 1.98633 -1.60254 5.0332 0.394531 6.80957l10.7773 9.62012l-36.4746 39.6338zM401.639 45.542l80.3682 280.229c3.55371 12.3389 -5.67773 33.7861 -37.2578 42.8232
c-25.0781 7.16309 -42.1992 5.33984 -48.3125 4.25977l-83.7119 -291.865c9.1543 1.01855 25.7129 1.22363 48.0508 -5.16113c20.8135 -5.94922 34.499 -17.6943 40.8633 -30.2852zM178.818 290.135l6.46484 22.6104l21.8721 -6.25391l-6.46484 -22.6104zM216.314 338.35
l-6.47168 -22.584l-21.8877 6.25684l6.48242 22.584zM247.449 329.451l-6.48145 -22.5938l-21.873 6.25586l6.48242 22.5898zM260.301 256.814l-6.48145 -22.5898l-21.8682 6.25195l6.4873 22.5889zM200.824 249.367l6.45898 22.5908l21.8721 -6.25391l-6.45898 -22.5908z
" />
    <glyph glyph-name="uniF126" unicode="&#xf126;" 
d="M214.71 373.678v-57.8066h99.0967v57.8066h132.129v-57.8066h57.8066v-333.072h-495.484v333.072h74.3232v57.8066h132.129zM202.95 237.849c-25.3438 -0.0986328 -51.3896 -6.33398 -69.7393 -24.8818c-18.374 -18.5723 -25.0967 -45.7324 -24.6504 -71.2256
c0.0986328 -5.54102 -0.0742188 -11.1396 0.875 -16.5986c3.12988 -17.9111 7.65527 -36.9131 20.4717 -50.7295c9.20801 -9.91797 14.7656 -15.6152 25.9717 -20.8262c24.3867 -11.3223 66.0732 -12.5859 91.0869 -1.58594c8.7041 3.83203 13.7822 8.00195 21.3799 14.8311
c11.999 10.7939 17.5811 27.252 21.8594 42.2324l-50.5645 15.2852c-1.80859 -9.9668 -6.20117 -19.0098 -12.2959 -26.9951c-5.64844 -6.20215 -13.9893 -9.30664 -25.0303 -9.30664c-11.3799 0 -20.2158 3.83984 -26.5 11.5117
c-6.27637 7.67969 -9.42285 21.8672 -9.42285 42.5615c0 16.7061 2.63477 28.9609 7.89453 36.7734c1.93262 2.2959 3.34473 5.16113 5.79785 6.89551c4.61621 3.27832 9.71973 5.94531 15.0293 7.89453c9.69531 3.54297 23.7998 -0.404297 31.3721 -6.91211
c6.11133 -5.25977 8.27539 -11.0322 10.9834 -18.3408l50.9521 11.3301c-6.72168 18.9854 -20.5703 43 -41.0342 50.0605c-9.02637 3.11328 -18.4893 4.75586 -27.7383 7.13477zM306.35 182.768v-29.2666h-29.1182v-24.5596h29.1182v-29.1182h24.5508v29.1182h35.2295
v-29.1182h24.5508v29.1182h29.2754v24.5596h-29.2754v29.2666h-24.5508v-29.2666h-35.2295v29.2666h-24.5508z" />
    <glyph glyph-name="uniF128" unicode="&#xf128;" 
d="M314 210.288c0 -9.90951 -3.52539 -18.5762 -10.5762 -26l-186.288 -186c-7.05078 -7.05078 -15.6214 -10.5762 -25.7119 -10.5762s-18.6611 3.52539 -25.7119 10.5762l-21.7119 21.4238c-7.05078 7.42383 -10.5762 16.0905 -10.5762 26
c0 10.0905 3.52539 18.6611 10.5762 25.7119l138.864 138.864l-138.864 138.576c-7.05078 7.42383 -10.5762 16.0905 -10.5762 26c0 10.0905 3.52539 18.6611 10.5762 25.7119l21.7119 21.4238c6.85872 7.24284 15.4294 10.8643 25.7119 10.8643
s18.8532 -3.62142 25.7119 -10.8643l186.288 -186c7.05078 -7.05078 10.5762 -15.6214 10.5762 -25.7119z" />
    <glyph glyph-name="uniF13B" unicode="&#xf13b;" 
d="M64.9189 448l0.737305 -382.87h317.583v48.4062c0 6.30176 3.53125 11.8438 9.3291 14.6221c5.54199 2.51465 12.3555 1.76172 17.1445 -2.27441l96.8057 -80.6699c7.31152 -6.05371 7.31152 -18.6572 0 -24.7041l-96.8057 -80.6777
c-4.78906 -4.02734 -11.6025 -5.03711 -17.1445 -2.26562c-5.79785 2.77051 -9.3291 8.31934 -9.3291 14.6221v48.4062h-374.054c-4.53223 0 -8.06348 3.52344 -8.06348 8.06445l0.760742 439.341h63.0361z" />
    <glyph glyph-name="uniF106" unicode="&#xf106;" 
d="M338.288 192c0 -4.94922 -1.80794 -9.2373 -5.42383 -12.8643l-155.424 -155.424c-3.61654 -3.61589 -7.90462 -5.42383 -12.8643 -5.42383c-4.96029 0 -9.24837 1.80794 -12.8643 5.42383s-5.42383 7.90397 -5.42383 12.8643v82.2881h-128
c-4.94922 0 -9.2373 1.80794 -12.8643 5.42383c-3.6263 3.61589 -5.43424 7.90397 -5.42383 12.8643v109.712c0 4.94922 1.80794 9.23698 5.42383 12.8633c3.61589 3.62695 7.90397 5.43522 12.8643 5.4248h128v82.2881c0 4.94922 1.80794 9.23698 5.42383 12.8633
c3.61589 3.62695 7.90397 5.4349 12.8643 5.42383c4.95964 -0.0104167 9.24772 -1.81836 12.8643 -5.42383l155.424 -155.424c3.61589 -3.61589 5.42383 -7.90397 5.42383 -12.8643v-0.015625zM438.864 292.576v-201.136c0 -22.6667 -8.04818 -42.0482 -24.1445 -58.1445
c-16.0957 -16.0957 -35.4769 -24.1436 -58.1436 -24.1436h-91.4238c-2.47461 0 -4.61882 0.906576 -6.43262 2.71973c-1.81315 1.81315 -2.71973 3.95703 -2.71973 6.43164c0 0.757812 -0.0960286 2.66178 -0.288086 5.71191
c-0.192057 3.05078 -0.239909 5.57357 -0.143555 7.56836c0.0957031 1.99479 0.383464 4.2347 0.863281 6.71973c0.480469 2.48568 1.43522 4.3418 2.86426 5.56836c1.42969 1.22656 3.38184 1.84505 5.85645 1.85547h91.4238c12.5762 0 23.3389 4.47493 32.2881 13.4248
c8.94922 8.94922 13.4238 19.7119 13.4238 32.2881v201.136c0 12.5762 -4.47461 23.3389 -13.4238 32.2881s-19.7119 13.4238 -32.2881 13.4238h-89.1357l-3.28027 0.288086l-3.28027 0.864258l-2.28809 1.56738l-2 2.57617l-0.576172 3.85645
c0 0.757161 -0.0960286 2.66113 -0.288086 5.71191c-0.191406 3.05013 -0.239258 5.57259 -0.143555 7.56738s0.383789 4.23503 0.864258 6.7207c0.479818 2.48503 1.43424 4.34082 2.86328 5.56738c1.42969 1.22656 3.38184 1.84538 5.85645 1.85645h91.4238
c22.6667 0 42.0482 -8.04818 58.1445 -24.1445c16.0957 -16.0957 24.1436 -35.4769 24.1436 -58.1436h-0.015625z" />
    <glyph glyph-name="uniF123" unicode="&#xf123;" 
d="M430.719 448c45.9863 -0.835938 80.125 -35.5225 81.2812 -81.2803v-347.213c0 -44.8896 -36.3916 -81.2793 -81.2803 -81.2793h-349.439c-45.9863 0.835938 -80.124 35.5225 -81.2803 81.2793v347.213c0.835938 45.9863 35.5225 80.124 81.2803 81.2803h349.438z
M255.259 357.05c-32.0312 0 -57.2217 -8.18555 -75.5654 -24.5537c-18.3438 -16.3701 -27.5156 -38.877 -27.5156 -67.5225c0 -22.2959 5.57422 -40.04 16.7217 -53.2344c11.1484 -13.1924 32.4541 -25.7871 63.9219 -37.7822l30.6914 -11.6416
c10.7256 -4.09277 18.9092 -9.70117 24.5537 -16.8262c5.64453 -7.12793 8.46777 -15.416 8.46777 -24.8721c0 -12.5586 -4.2334 -22.3301 -12.7012 -29.3145c-8.46582 -6.9873 -20.3906 -10.4785 -35.7705 -10.4785c-15.2412 0 -30.6572 2.8916 -46.25 8.67871
c-15.5928 5.78613 -31.7139 14.6055 -48.3652 26.458v-64.5576c14.6758 -7.33887 29.8809 -12.877 45.6143 -16.6162c15.7344 -3.74023 31.4316 -5.60938 47.0957 -5.60938c38.1006 0 66.5693 7.86719 85.4072 23.6016c18.8389 15.7324 28.2578 39.5449 28.2578 71.4355
c0 23.4258 -5.99805 42.8281 -17.9912 58.21c-11.9951 15.3809 -30.6914 27.7266 -56.0928 37.041l-26.8818 10.1602c-18.626 6.91406 -30.8682 13.2295 -36.7236 18.9443c-5.85645 5.71484 -8.78418 12.9463 -8.78418 21.6963c0 11.2881 4.02246 19.9658 12.0654 26.0342
c8.04297 6.06738 19.6143 9.10156 34.7119 9.10156c13.5469 0 27.2363 -2.46875 41.0645 -7.40918c13.8291 -4.9375 27.4453 -12.1338 40.8516 -21.5898v60.96c-14.2529 6.49219 -28.6445 11.3955 -43.1797 14.7119c-14.5342 3.31641 -29.0693 4.97461 -43.6035 4.97461z
" />
    <glyph glyph-name="uniF119" unicode="&#xf119;" 
d="M282.363 -8.62207c0 -5.33008 -4.80273 -9.72754 -10.7988 -9.72754h-161.495c-6 0 -10.8691 4.39746 -10.8691 9.72754v73.5996c0 5.40234 4.86914 9.76953 10.8691 9.76953h161.495c6.00098 0 10.7988 -4.37305 10.7988 -9.76953v-73.5996zM512 64.9775v-73.5996
c0 -5.36035 -4.86426 -9.72754 -10.9004 -9.72754h-161.465c-6.03613 0 -10.9004 4.36133 -10.9004 9.72754v73.5996c0 5.39648 4.86426 9.7334 10.9004 9.7334h161.465c6.03613 0 10.9004 -4.33105 10.9004 -9.7334zM397.199 204.452v-73.6006
c0 -5.33496 -4.86426 -9.76855 -10.9004 -9.76855h-161.5c-5.93457 0 -10.8701 4.43359 -10.8701 9.76855v73.6006c0 5.39648 4.93555 9.76367 10.8701 9.76367h161.5c6.03613 0 10.9004 -4.3623 10.9004 -9.76367zM230.2 287.514l-11.0391 7.68457l50.0332 72.4482
l11.4023 -7.84863v0c5.30371 -3.73242 6.59961 -11.085 2.86719 -16.3838l-36.8643 -52.9668c-3.79883 -5.35059 -11.0996 -6.65039 -16.3994 -2.93359v0zM0 178.432l97.7002 139.551l38.7988 -27.1816l-97.833 -139.551c-15.667 1.7666 -31.5645 12.0674 -38.666 27.1816z
M208.23 315.735c-0.333008 0.46582 -0.629883 0.947266 -1.0293 1.40723c-0.901367 1.12207 -1.96582 2.06934 -3 2.98535c-2.09961 1.7666 -4.66992 3.16406 -7.70117 3.79883c-19.502 3.93262 -35.333 -11.1152 -42.833 -19.917
c-1.59766 -2.03711 -6.4668 -8.60156 -5.0332 -6.56836c0.235352 0.363281 -50.4678 35.415 -50.5342 35.5479c-0.133789 0.200195 11.8984 16.999 17.9297 25.5186c22.334 31.8818 -4.43359 62.9141 -38.502 69.4473c-7.99805 1.48535 -15.668 0.931641 -23.665 0.583984
c-1.93555 -0.102539 -5.89844 -0.75293 -9.7998 -1.43359c-8.26855 -1.33691 -9.56934 9.86621 -2.20117 12.3643c4.16699 1.39844 8.73438 2.89844 11.0332 3.5332c42 11.4326 90.1992 4.18262 141 -31.3496c3.63477 -2.58594 7.43457 -5.15137 11.0693 -7.7002
c17.6641 -40.1211 51.3643 -36.0195 51.3643 -36.0195c-14.4336 -20.583 -28.9033 -41.1699 -43.2998 -61.7832c-0.333008 1.44922 -1.0293 2.89746 -1.66406 4.41309c-0.364258 0.686523 -0.768555 1.4541 -1.19824 2.23828
c-0.599609 1.01367 -1.23438 1.96582 -1.93555 2.93359z" />
    <glyph glyph-name="uniF10C" unicode="&#xf10c;" 
d="M416 100.576c0 7.61589 -2.66667 14.0905 -8 19.4238l-59.4238 59.4238c-5.33333 5.33333 -11.8079 8 -19.4238 8c-8 0 -14.8587 -3.04525 -20.5762 -9.13574c0.576172 -0.576172 2.38411 -2.33626 5.42383 -5.28027s5.08757 -4.99186 6.14355 -6.14355
c1.05599 -1.15234 2.48535 -2.96029 4.28809 -5.42383c1.80273 -2.46419 3.04004 -4.89095 3.71191 -7.28027c0.672526 -2.38932 1.00879 -5.00814 1.00879 -7.85645c0 -7.61589 -2.66667 -14.0905 -8 -19.4238c-5.33333 -5.33333 -11.8083 -8 -19.4248 -8
c-2.85807 0 -5.47656 0.335938 -7.85547 1.00781c-2.37891 0.672526 -4.80566 1.90983 -7.28027 3.71191c-2.47461 1.80273 -4.28255 3.2321 -5.42383 4.28809c-1.14128 1.05599 -3.18913 3.10417 -6.14355 6.14453c-2.95508 3.03971 -4.71517 4.84766 -5.28027 5.42383
c-6.28255 -5.90951 -9.42383 -12.8643 -9.42383 -20.8643c0 -7.61589 2.66667 -14.0905 8 -19.4238l58.8633 -59.1357c5.14193 -5.14128 11.6169 -7.71191 19.4248 -7.71191c7.61589 0 14.0905 2.47461 19.4238 7.42383l42 41.7119c5.33333 5.33333 8 11.7119 8 19.1357z
M215.136 302c0 7.61589 -2.66667 14.0905 -8 19.4238l-58.8633 59.1357c-5.33333 5.33333 -11.8083 8 -19.4248 8c-7.42383 0 -13.8984 -2.57064 -19.4238 -7.71191l-42 -41.7119c-5.33333 -5.33333 -8 -11.7119 -8 -19.1357c0 -7.61589 2.66667 -14.0905 8 -19.4238
l59.4238 -59.4238c5.14128 -5.14128 11.6162 -7.71191 19.4248 -7.71191c8 0 14.8584 2.95443 20.5752 8.86328c-0.575521 0.576172 -2.38346 2.33626 -5.42383 5.28027c-3.03971 2.94401 -5.08757 4.99186 -6.14355 6.14355
c-1.05599 1.15234 -2.48535 2.96061 -4.28809 5.4248c-1.80273 2.46354 -3.04004 4.88997 -3.71191 7.2793s-1.00781 5.00814 -1.00781 7.85645c0 7.61589 2.66667 14.0905 8 19.4238s11.8079 8 19.4238 8c2.85872 0 5.47721 -0.335938 7.85547 -1.00781
c2.37891 -0.671875 4.80566 -1.90918 7.28027 -3.71191s4.28255 -3.2321 5.42383 -4.28809s3.18945 -3.10417 6.14453 -6.14453c2.95443 -3.03971 4.71419 -4.84766 5.2793 -5.42383c6.28255 5.90951 9.42383 12.8643 9.42383 20.8643h0.0322266zM470.864 100.576
c0 -22.8587 -8.09603 -42.1921 -24.2881 -58l-42 -41.7119c-15.8079 -15.8079 -35.1413 -23.7119 -58 -23.7119c-23.0508 0 -42.4801 8.09603 -58.2881 24.2881l-58.8643 59.1357c-15.8079 15.8079 -23.7119 35.1413 -23.7119 58c0 23.4238 8.37858 43.3278 25.1357 59.7119
l-25.1357 25.1357c-16.3841 -16.7572 -36.1921 -25.1357 -59.4238 -25.1357c-22.8587 0 -42.2881 8 -58.2881 24l-59.4238 59.4238c-16 16 -24 35.4294 -24 58.2881s8.09603 42.1921 24.2881 58l42 41.7119c15.8079 15.8079 35.1413 23.7119 58 23.7119
c23.0508 0 42.4801 -8.09603 58.2881 -24.2881l58.8633 -59.1357c15.8079 -15.8079 23.7119 -35.1413 23.7119 -58c0 -23.4238 -8.37858 -43.3278 -25.1357 -59.7119l25.1357 -25.1357c16.3841 16.7572 36.1924 25.1357 59.4248 25.1357c22.8587 0 42.2881 -8 58.2881 -24
l59.4238 -59.4238c16 -16 24 -35.4294 24 -58.2881z" />
    <glyph glyph-name="uniF142" unicode="&#xf142;" 
d="M414.83 191.323c41.9287 -45.2207 60.708 -89.71 44.416 -118.235c-16.2568 -28.4521 -63.6533 -34.3223 -123.21 -20.3701c-17.8281 -59.5928 -46.7012 -98.5049 -79.3779 -98.5049c-32.7129 0 -61.5684 39.04 -79.3604 98.7979
c-60.2148 -14.3545 -108.178 -8.59473 -124.562 20.0771c-16.293 28.5254 2.50488 73.0693 44.4336 118.346c-42.7334 45.6406 -61.9697 90.6963 -45.5312 119.441c16.457 28.8184 64.8779 34.5059 125.514 19.877c17.8096 59.8857 46.7744 99.0352 79.5244 99.0352
c32.7314 0 61.6045 -39.0215 79.3965 -98.7607c60.0684 14.2627 107.959 8.48438 124.324 -20.1514c16.3838 -28.7627 -2.87012 -73.8555 -45.5674 -119.552zM68.5898 300.965c-12.5811 -22.0166 4.77246 -58.1123 41.5088 -96.2744
c14.9756 14.6104 32.2188 29.1104 51.4189 43.0439c2.34082 23.1504 5.90625 45.1113 10.7891 65.0977c-51.3281 13.1836 -91.0811 10.2402 -103.717 -11.8672zM159.451 221.971c-13.165 -10.0205 -25.1787 -20.1875 -35.9492 -30.3359
c10.916 -10.2041 22.6924 -20.4443 36.0225 -30.5381c-0.548828 10.1494 -0.932617 20.4072 -0.932617 30.9033c0 10.167 0.329102 20.1504 0.859375 29.9707zM161.499 135.424c-19.2178 13.8789 -36.4062 28.3428 -51.4375 42.8984
c-36.0771 -37.8145 -52.8271 -73.4902 -40.3564 -95.3232c12.5625 -21.9609 51.8945 -25.0146 102.766 -12.1055c-4.88184 19.877 -8.64941 41.4902 -10.9717 64.5303zM330.752 121.874c-8.15527 -5.35742 -16.4941 -10.624 -25.1797 -15.6885
c-8.81348 -5.13867 -17.627 -9.85645 -26.4043 -14.3545c15.0488 -6.40039 29.7695 -11.9775 43.7393 -16.2559c3.27344 14.3359 5.81543 29.9697 7.84473 46.2988zM256.64 -25.9658c25.0332 0 47.251 32.6396 61.623 83.3281
c-19.8398 5.70508 -40.7949 13.6416 -62.1533 23.2959c-20.9736 -9.52637 -41.4902 -17.1885 -61.0195 -22.9121c14.3369 -50.8154 36.5166 -83.7119 61.5498 -83.7119zM190.573 76.0322c13.5684 4.22363 27.7578 9.47168 42.3506 15.6885
c-8.81445 4.5166 -17.6826 9.29004 -26.5332 14.4463c-8.20996 4.80859 -16.1094 9.74609 -23.8447 14.8115c1.99316 -16.0371 4.82812 -30.8301 8.02734 -44.9463zM182.583 262.29c8.06348 5.28516 16.3291 10.4775 24.9053 15.5068
c8.46582 4.95508 16.9326 9.50781 25.3799 13.8604c-14.6465 6.25391 -28.9824 11.7764 -42.624 16.0361c-3.18164 -14.0801 -5.64941 -29.4209 -7.66113 -45.4033zM256.64 409.966c-25.1055 0 -47.4326 -32.9512 -61.7871 -84.0049
c19.5107 -5.74121 40.0645 -13.623 61.001 -23.168c21.4307 9.81934 42.3867 17.6641 62.3359 23.4795c-14.3359 50.7793 -36.498 83.6934 -61.5498 83.6934zM322.743 308.022c-14.0439 -4.37012 -28.709 -9.78223 -43.8496 -16.292
c8.50293 -4.37012 17.042 -8.95996 25.5635 -13.9521c9.17969 -5.35742 17.957 -10.9346 26.5322 -16.6035c-2.01074 16.7314 -4.91797 32.1826 -8.24609 46.8477zM333.513 235.812c-12.251 8.52148 -25.1973 16.8408 -38.875 24.7959
c-13.0928 7.64258 -26.0752 14.3174 -38.9121 20.5527c-12.6719 -6.18066 -25.5264 -13.0381 -38.418 -20.5527c-13.0381 -7.58887 -25.4902 -15.5254 -37.2119 -23.6074c-1.13379 -14.5732 -1.90137 -29.4951 -1.90137 -45.0195
c0 -15.6885 0.639648 -30.957 1.77344 -45.6953c11.4658 -7.88184 23.5703 -15.5801 36.2246 -22.9668c13.458 -7.84473 26.8066 -14.7021 40.0088 -21.0654c13.0381 6.32715 26.2764 13.3301 39.5332 21.0654c13.1475 7.66113 25.6367 15.6338 37.4678 23.8076
c1.11523 14.5186 1.90137 29.3848 1.90137 44.8545c0 15.0312 -0.547852 29.6777 -1.59082 43.8311zM442.258 82.999c12.4717 21.7969 -4.4248 57.417 -40.4297 95.1406c-14.6465 -14.1533 -31.4141 -28.1973 -50.0293 -41.71
c-2.34082 -23.4424 -5.96094 -45.6963 -10.9346 -65.9014c50.2119 -12.5264 88.96 -9.28906 101.394 12.4707zM353.865 162.194c12.5986 9.61816 24.1553 19.3828 34.5781 29.0928c-10.459 9.87402 -21.7412 19.8027 -34.5049 29.5859
c0.457031 -9.49023 0.786133 -19.0898 0.786133 -28.873c-0.0185547 -10.1299 -0.347656 -20.041 -0.859375 -29.8057zM443.355 300.965c-12.5439 21.9238 -51.749 25.0332 -102.491 12.1777c4.99219 -20.4434 8.84961 -42.7695 11.1543 -66.5781
c18.6328 -13.623 35.291 -27.7939 49.8828 -42.0391c36.8096 38.2354 54.0713 74.3867 41.4541 96.4395zM259.639 154.295c-21.5225 0 -38.9668 17.6094 -38.9668 39.3506c0 21.7236 17.4443 39.3506 38.9668 39.3506c21.5039 0 38.9492 -17.627 38.9492 -39.3506
c0 -21.7598 -17.4453 -39.3506 -38.9492 -39.3506z" />
    <glyph glyph-name="uniF116" unicode="&#xf116;" 
d="M159.458 207.059c-29.0436 -0.893229 -52.7965 -12.3678 -71.2588 -34.4238h-36.0352c-14.6979 0 -27.0664 3.62891 -37.1055 10.8867c-10.0391 7.25846 -15.0586 17.8802 -15.0586 31.8652c0 63.2871 11.1133 94.9307 33.3398 94.9307
c1.07422 0 4.97461 -1.88249 11.7012 -5.64746c6.72591 -3.76432 15.4652 -7.57422 26.2178 -11.4297c10.752 -3.85482 21.4186 -5.78223 32 -5.78223c12.0065 0 23.9281 2.06315 35.7646 6.18945c-0.89388 -6.63607 -1.34082 -12.5544 -1.34082 -17.7549
c0 -24.9173 7.25846 -47.862 21.7754 -68.834zM447.458 35.7646c0 -21.5143 -6.54557 -38.5007 -19.6367 -50.959c-13.0911 -12.459 -30.4792 -18.6885 -52.1641 -18.6885h-235.022c-21.6953 0 -39.0833 6.22949 -52.1641 18.6885
c-13.0814 12.4583 -19.627 29.4447 -19.6367 50.959c0 9.4974 0.316081 18.7738 0.948242 27.8291c0.632812 9.05534 1.8877 18.8232 3.76465 29.3037c1.8776 10.4811 4.25195 20.2093 7.12305 29.1846c2.87109 8.97526 6.72624 17.7142 11.5654 26.2168
c4.83854 8.50326 10.3952 15.7617 16.6699 21.7754s13.9398 10.8073 22.9951 14.3809c9.05534 3.57422 19.0495 5.36621 29.9824 5.37598c1.79688 0 5.65169 -1.92741 11.5645 -5.78223c5.91341 -3.85482 12.459 -8.15658 19.6367 -12.9053
c7.17839 -4.7487 16.7708 -9.05046 28.7773 -12.9053c12.0072 -3.85547 24.1097 -5.7832 36.3076 -5.7832c12.1973 0 24.2995 1.92773 36.3066 5.7832c12.0065 3.85482 21.599 8.15658 28.7773 12.9053c7.17773 4.7487 13.7233 9.05046 19.6367 12.9053
c5.91276 3.85482 9.76758 5.78223 11.5645 5.78223c10.9329 0 20.9271 -1.79199 29.9824 -5.37598s16.7204 -8.3776 22.9951 -14.3809s11.8314 -13.2617 16.6699 -21.7754c4.83919 -8.51302 8.69434 -17.252 11.5654 -26.2168s5.24544 -18.693 7.12305 -29.1846
c1.87695 -10.4909 3.13184 -20.2588 3.76465 -29.3037c0.632161 -9.04557 0.948242 -18.3219 0.948242 -27.8291h-0.0449219zM172.107 379.166c0 -19.0039 -6.72135 -35.2272 -20.1641 -48.6699s-29.666 -20.1641 -48.6699 -20.1641
c-19.0046 0 -35.2279 6.72135 -48.6699 20.1641c-13.4427 13.4427 -20.1641 29.666 -20.1641 48.6699c0 19.0046 6.72135 35.2279 20.1641 48.6699c13.4421 13.4427 29.6654 20.1641 48.6699 20.1641c19.0039 0 35.2272 -6.72135 48.6699 -20.1641
c13.4427 -13.4421 20.1641 -29.6654 20.1641 -48.6699zM361.412 275.893c0 -28.5013 -10.0846 -52.8363 -30.2539 -73.0049c-20.1686 -20.1686 -44.5036 -30.2529 -73.0049 -30.2529c-28.5013 0 -52.8363 10.0843 -73.0049 30.2529s-30.2529 44.5036 -30.2529 73.0049
c0 28.5013 10.0843 52.8363 30.2529 73.0049c20.1686 20.1693 44.5036 30.2539 73.0049 30.2539c28.5013 0 52.8363 -10.0846 73.0049 -30.2539c20.1693 -20.1686 30.2539 -44.5036 30.2539 -73.0049zM516.307 215.401c0 -13.9844 -5.01953 -24.6058 -15.0586 -31.8643
s-22.4076 -10.8877 -37.1055 -10.8877h-36.0352c-18.4622 22.0462 -42.2152 33.5212 -71.2588 34.4248c14.5169 20.972 21.7754 43.9167 21.7754 68.834c0 5.19987 -0.446615 11.1178 -1.33984 17.7539c11.8359 -4.1263 23.7575 -6.18945 35.7646 -6.18945
c10.5814 0 21.248 1.92773 32 5.7832c10.752 3.85482 19.4909 7.66471 26.2168 11.4297c6.72656 3.76432 10.627 5.64648 11.7012 5.64648c22.2266 0 33.3398 -31.6436 33.3398 -94.9307zM481.883 379.166c0 -19.0039 -6.72135 -35.2272 -20.1641 -48.6699
s-29.666 -20.1641 -48.6699 -20.1641c-19.0046 0 -35.2282 6.72135 -48.6709 20.1641c-13.4421 13.4427 -20.1631 29.666 -20.1631 48.6699c0 19.0046 6.72103 35.2279 20.1631 48.6699c13.4427 13.4427 29.6663 20.1641 48.6709 20.1641
c19.0039 0 35.2272 -6.72135 48.6699 -20.1641c13.4427 -13.4421 20.1641 -29.6654 20.1641 -48.6699z" />
    <glyph glyph-name="uniF11C" unicode="&#xf11c;" 
d="M144.732 448c21.1348 -168.602 144.737 -287.263 144.737 -367.201c0 -80 -64.8037 -144.799 -144.737 -144.799s-144.732 64.7988 -144.732 144.799c0 79.9385 123.602 198.6 144.732 367.201zM216.131 -8.53516c92.5391 62.1367 28.2002 153.933 10.8643 183.537
c48.3994 -100.537 -10.8643 -183.537 -10.8643 -183.537z" />
    <glyph glyph-name="uniF113" unicode="&#xf113;" 
d="M449.152 52.0156v-0.015625c9.50391 -9.50391 12.96 -21.4883 3.45605 -31.0078l-24.1445 -24.1123c-9.50391 -9.51953 -24.9121 -9.51953 -34.4639 0l-97.248 97.2803c-23.4238 -13.6963 -50.6562 -21.584 -79.7441 -21.584
c-87.4717 0 -163.248 75.8076 -163.248 163.28c0 87.4551 70.9121 158.367 158.368 158.367c87.4717 0 163.28 -75.792 163.28 -163.248c0 -30.1279 -8.40039 -58.2393 -22.9922 -82.2236zM102.496 235.872h-0.015625c0 -60.5605 53.9355 -114.528 114.512 -114.528
s109.647 49.0879 109.647 109.648c0 60.5596 -53.9512 114.527 -114.527 114.527c-60.5439 0 -109.616 -49.1035 -109.616 -109.647z" />
    <glyph glyph-name="uniF10A" unicode="&#xf10a;" 
d="M256 448c141.392 0 256 -114.608 256 -256s-114.608 -256 -256 -256s-256 114.608 -256 256s114.608 256 256 256zM408.032 39.9678l0.0322266 0.0166016c19.7598 19.7598 35.2637 42.752 46.0957 68.3516c11.2002 26.4805 16.8799 54.6396 16.8799 83.6797
s-5.67969 57.2002 -16.8799 83.6807c-10.832 25.5996 -26.3359 48.5918 -46.0957 68.3516c-19.7607 19.7598 -42.7529 35.2637 -68.3525 46.0957c-26.4795 11.2002 -54.6396 16.8809 -83.6797 16.8809s-57.2002 -5.68066 -83.6807 -16.8809
c-25.5996 -10.832 -48.5918 -26.3359 -68.3516 -46.0957s-35.2637 -42.752 -46.0957 -68.3516c-11.2002 -26.4805 -16.8799 -54.624 -16.8799 -83.6807c0 -29.0557 5.67969 -57.1992 16.8799 -83.6797c10.832 -25.5996 26.3359 -48.5918 46.0957 -68.3516
c19.7598 -19.7607 42.752 -35.2646 68.3516 -46.0967c7.3125 -3.10352 14.752 -5.75977 22.3047 -8v39.1201c0 20.3359 6.83203 35.168 20.4961 44.4961c-8.67188 0.832031 -16.6084 2.01562 -23.8721 3.50391c-7.26465 1.48828 -14.9287 3.66406 -23.0078 6.49609
c-8.08008 2.83203 -15.3281 6.20801 -21.7441 10.1279s-12.5762 9.00781 -18.4961 15.248s-10.8799 13.3281 -14.8799 21.248s-7.16797 17.4082 -9.50391 28.4961c-2.33691 11.0879 -3.50488 23.2959 -3.50488 36.624c0 25.8398 8.41602 47.8398 25.248 66
c-7.66406 19.8242 -6.83203 41.584 2.49609 65.248c0.496094 0.160156 1.32812 0.335938 2.49609 0.496094s3.79199 0.0800781 7.87207 -0.255859s8.49609 -1.2002 13.248 -2.62402s11.0879 -4.08008 19.0078 -8s16.2881 -8.87988 25.1201 -14.8799
c19.5039 5.50391 40 8.25586 61.5039 8.25586c21.3281 0 41.9043 -2.75195 61.7441 -8.25586c14 9.4873 26.624 16.3193 37.8721 20.4951c11.248 4.17676 19.04 6 23.376 5.50488l6.25586 -0.751953c9.32812 -23.5049 10.1602 -45.248 2.49609 -65.248
c16.832 -18.1602 25.248 -40.1602 25.248 -66c0 -13.3281 -1.16797 -25.5527 -3.50391 -36.624c-2.33594 -11.0723 -5.50391 -20.5762 -9.50391 -28.4961s-8.95996 -15.0088 -14.8799 -21.248c-5.91992 -6.24023 -12.0801 -11.3281 -18.4961 -15.248
s-13.6484 -7.2959 -21.7441 -10.1279s-15.7598 -4.99219 -23.0078 -6.49609s-15.2002 -2.67188 -23.8721 -3.50391c13.8398 -9.48828 20.752 -24.3359 20.752 -44.4961v-38.3682c6.7041 2.08008 13.3115 4.49609 19.8076 7.24805
c25.6006 10.832 48.5928 26.3359 68.3525 46.0957z" />
    <glyph glyph-name="uniF100" unicode="&#xf100;" 
d="M235.841 21.3281c-14.0391 10.4902 -49.4453 47.5039 -26.9854 68.832c8.3916 7.96973 18.25 -9.65332 22.0566 -12.0488c12.5234 -7.87988 17.3359 -1.13477 23.6299 6.78418c11.4629 21.2217 -3.89746 43.6465 -9.38281 59.3174
c-6.25391 17.8652 -18.5977 40.3467 -8.78027 54.2646c9.81543 13.917 32.6123 13.0059 38.1826 2.3877c8.94336 -17.042 5.34473 -24.1787 5.40234 -41.7432c0.100586 -30.0479 2.8252 -71.4033 11.6299 -100.582c5.26465 -17.4463 10.7441 -38.7627 8.18555 -58.334
c-0.685547 -5.24023 -0.982422 -19.71 -5.67969 -34.5986c-5.15918 -16.3604 -12.1309 -29.7021 -20.3447 -27.3252c-6.0918 1.76367 -7.76562 8.44238 -8.1748 25.5439c-0.428711 17.8701 -4.8457 32.5859 -10.5986 39.9893
c-4.49121 5.72559 -10.5586 11.1035 -19.1406 17.5127zM230.366 14.416c26.6504 -18.6348 23.1631 -60.0635 3.85352 -60.6094c-26.5967 -0.75293 -14.8496 18.3691 -38.3672 48.4756c-13.6396 17.4629 -52.7471 11.7461 -64.7822 16.0029
c-39.6416 14.0176 -60.96 48.0762 -52.0234 68.1875c11.5479 25.9814 37.0215 16.1875 45.8145 -5.78223c11.8945 -29.7227 36.2168 -34.5879 45.123 -20.3115c11.8057 18.9199 -38.8477 71.2129 -54.2686 82.6953c-22.623 16.8477 -81.8574 -8.98438 -81.7422 29.5381
c0.115234 38.5283 43.7764 -2.2998 51.7715 7.67871c7.99512 9.97656 8.38867 17.4971 -2.36133 47.373s-14.0693 60.002 15.3154 56.1865c29.3838 -3.81641 16.7197 -41.3594 22.6025 -69.6699c2.97363 -14.3174 25.8672 -87.0137 52.8359 -65.6338
c21.5576 17.0889 -21.4434 65.1133 -26.2363 106.003c-5.18164 44.1934 -0.0654297 74.457 7.91016 86.1191c16.4707 24.0869 49.5986 15.9443 42.4219 -12.9443c-7.45215 -29.9912 -30.3516 -83.9775 0.0332031 -96.0928
c40.8193 -16.2783 4.85645 -48.8945 31.0664 -89.8691c5 -7.81543 23.1182 -43.5293 16.3105 -50.1074c-4.22852 -4.08496 -9.40332 -7.75 -17.624 2.91992c-8.22168 10.6709 -14.3613 12.2588 -21.0654 9.79883c-10.6816 -3.91406 -18.4229 -19.8906 -16.3398 -35.1152
c3.41113 -24.9336 13.6201 -36.5654 39.752 -54.8428zM332.243 375.621c3.40625 28.7139 23.5596 59.4678 0.847656 67.9951c-22.7109 8.52637 -36.7783 -6.2666 -36.0645 -38.0088c0.716797 -31.7432 7.02734 -46.0439 -3.7207 -52.9727
c-10.75 -6.92676 -44.5107 24.0195 -48.6592 -6.12793c-3.85645 -28.0312 25.4043 -25.5312 46.2842 -32.627c28.0938 -9.54395 47.9561 -42.5908 38.501 -62.7607c-12.7871 -27.2783 -43.4854 48.8477 -73.96 23.8877c-14.502 -11.8818 -11.6152 -33.0557 12.792 -45.0723
c25.7451 -12.6777 40.0176 -39.9121 31.9502 -67.2705c-10.5703 -35.8369 -7.94922 -81.8594 3.45996 -110.752c6.85938 -17.374 14.6514 -42.5459 13.4824 -55.3516c-0.573242 -6.27734 -12.5625 -38.4404 -2.67871 -44.6475
c25.1045 -15.7686 41.7256 33.376 47.9648 46.7627c9.88184 21.2012 16.5674 43.1465 34.9033 49.1738c24.2451 7.96973 47.167 -0.921875 66.3965 5.29492c38.5928 12.4805 -9.11035 92.9092 -47.416 43.9336c-14.3486 -18.3438 -40.5107 -18.2266 -52.9951 0.594727
c-32.4082 48.8486 19.834 146.863 64.5732 171.03c27.7109 14.9688 42.332 20.7979 35.5928 40.7324c-6.54102 19.3496 -29.6348 22.0117 -51.4111 -3.49121c-23.0234 -26.9639 -41.4072 -21.7695 -55.2832 -9.02539c-18.3877 16.8867 -27.6816 52.3711 -24.5596 78.7021z
" />
    <glyph glyph-name="uniF112" unicode="&#xf112;" 
d="M429.653 444.587c43.5215 0 78.9336 -35.4111 78.9336 -78.9336s-35.4121 -78.9336 -78.9336 -78.9336h-15.7861v-284.16c0 -34.8184 -28.3291 -63.1465 -63.1475 -63.1465h-268.373c-43.5254 0 -78.9336 35.4102 -78.9336 78.9336s35.4082 78.9336 78.9336 78.9336
h47.3604v252.587c0 52.2275 42.4883 94.7197 94.7197 94.7197h205.227zM129.707 2.55957v63.1465h-47.3604c-26.1152 0 -47.3594 -21.2451 -47.3594 -47.3594s21.2441 -47.3604 47.3594 -47.3604h15.7871c17.4092 0 31.5732 14.1641 31.5732 31.5732zM382.294 2.55957
v284.16h-157.867c-8.71875 0 -15.7871 7.06836 -15.7871 15.7871s7.06934 15.7871 15.7871 15.7871c26.1123 0 47.3604 21.2461 47.3604 47.3594c0 26.1143 -21.248 47.3604 -47.3604 47.3604c-34.7344 0 -63.1465 -28.417 -63.1465 -63.1465v-347.308
c0 -11.4932 -3.0918 -22.2803 -8.47949 -31.5732h197.919c17.4092 0 31.5742 14.1641 31.5742 31.5732zM429.653 318.293c26.1123 0 47.3604 21.2461 47.3604 47.3604c0 26.1133 -21.248 47.3594 -47.3604 47.3594h-142.118
c9.93164 -13.1992 15.8252 -29.6055 15.8252 -47.3594c0 -17.7549 -5.89355 -34.1592 -15.8252 -47.3604h142.118zM208.629 231.467c0 4.35938 3.5332 7.89355 7.89258 7.89355h110.525c4.35938 0 7.89355 -3.53418 7.89355 -7.89355s-3.53418 -7.89258 -7.89355 -7.89258
h-110.525c-4.35938 0 -7.89258 3.53223 -7.89258 7.89258zM327.048 176.213c4.3584 0 7.89258 -3.53418 7.89258 -7.89258c0 -4.35938 -3.53418 -7.89355 -7.89355 -7.89355h-110.525c-4.35938 0 -7.89258 3.53418 -7.89258 7.89355
c0 4.3584 3.5332 7.89258 7.89258 7.89258h110.526zM327.048 113.066c4.3584 0 7.89355 -3.5332 7.89258 -7.89355c0 -4.3584 -3.53418 -7.89258 -7.89355 -7.89258h-110.525c-4.35938 0 -7.89258 3.53418 -7.89258 7.89258c0 4.36035 3.5332 7.89355 7.89258 7.89355
h110.526zM327.048 49.9199c4.3584 0 7.89355 -3.5332 7.89258 -7.89355c0 -4.35938 -3.53418 -7.89355 -7.89355 -7.89355v0h-110.525v0c-4.35938 0 -7.89258 3.53418 -7.89258 7.89355c0 4.36035 3.5332 7.89355 7.89258 7.89355h0.0117188h110.511h0.00390625z" />
    <glyph glyph-name="uniF13A" unicode="&#xf13a;" 
d="M93.998 259.933h135.869v-135.87h-135.869v135.87zM282.102 259.933h135.864v-135.87h-135.864v135.87zM0 107.136h135.869v-135.869h-135.869v135.869zM188.067 107.136h135.834v-135.869h-135.834v135.869zM376.136 107.136h135.864v-135.869h-135.864v135.869z
M188.067 412.733h135.834v-135.864h-135.834v135.864z" />
    <glyph glyph-name="uniF108" unicode="&#xf108;" 
d="M193.099 300.821c50.8857 0 93.4824 -34.9707 105.397 -82.1543h152.379v-53.334h-152.385c-11.9092 -47.1895 -54.5059 -82.1543 -105.392 -82.1543c-60.1016 0 -108.821 48.7305 -108.821 108.821c0 60.1016 48.7197 108.821 108.821 108.821z" />
    <glyph glyph-name="uniF145" unicode="&#xf145;" 
d="M256 400.256c115.184 0 208.256 -93.04 208.256 -208.256c0 -115.2 -93.0557 -208.256 -208.256 -208.256c-115.216 0 -208.24 93.0723 -208.24 208.256c0 115.216 93.0244 208.256 208.24 208.256zM255.264 316.976c-14.9277 0 -27.0234 -12.0791 -27.0078 -27.0078
c0 -14.9121 12.0801 -27.0078 27.0078 -27.0078c14.8965 0 26.9922 12.0957 26.9922 27.0078c0 14.9287 -12.0957 27.0078 -26.9922 27.0078zM258.912 -2.25586c104.304 0 191.344 88.6074 191.328 194.368c0 108.384 -79.6006 187.983 -194.368 194.352
c63.7598 -8.25586 97.3604 -41.8076 97.3604 -97.3281c0 -92.3682 -100.769 -97.3281 -100.769 -97.3281c-53.6797 0.0488281 -93.7119 -44.1436 -93.7119 -97.0234c0 -54.7363 43.5039 -97.04 100.16 -97.04zM256.24 122.976c14.9121 0 27.0078 -12.0791 27.0078 -27.0078
c0 -14.9121 -12.0957 -27.0078 -27.0078 -27.0078s-27.0078 12.0957 -27.0078 27.0078c0 14.9287 12.0957 27.0078 27.0078 27.0078z" />
    <glyph glyph-name="uniF136" unicode="&#xf136;" 
d="M240.941 207.059c0 19.0046 -6.72135 35.2279 -20.1641 48.6699c-13.4427 13.4427 -29.666 20.1641 -48.6699 20.1641c-19.0046 0 -35.2279 -6.72135 -48.6699 -20.1641c-13.4427 -13.4421 -20.1641 -29.6654 -20.1641 -48.6699
c0 -19.0039 6.72135 -35.2272 20.1641 -48.6699c13.4421 -13.4427 29.6654 -20.1641 48.6699 -20.1641c19.0039 0 35.2272 6.72135 48.6699 20.1641s20.1641 29.666 20.1641 48.6699zM447.458 69.376c0 9.32617 -3.4082 17.3926 -10.2246 24.1992
c-6.81706 6.80664 -14.8838 10.2152 -24.2002 10.2256c-9.31641 0.00976562 -17.3828 -3.39876 -24.1992 -10.2256c-6.81641 -6.82617 -10.2246 -14.8926 -10.2246 -24.1992c0 -9.4974 3.36296 -17.609 10.0889 -24.335c6.72656 -6.72656 14.8382 -10.0898 24.335 -10.0898
c9.4974 0 17.609 3.36328 24.335 10.0898c6.72656 6.72591 10.0898 14.8376 10.0898 24.335zM447.458 344.741c0 9.32682 -3.4082 17.3936 -10.2246 24.2002c-6.81706 6.80664 -14.8838 10.2148 -24.2002 10.2246c-9.31641 0.0104167 -17.3828 -3.39779 -24.1992 -10.2246
s-10.2246 -14.8936 -10.2246 -24.2002c0 -9.49674 3.36296 -17.6084 10.0889 -24.335c6.72656 -6.72591 14.8382 -10.0889 24.335 -10.0889c9.4974 0 17.609 3.36296 24.335 10.0889c6.72656 6.72656 10.0898 14.8382 10.0898 24.335zM344.199 231.529v-49.7539
c0 -1.79753 -0.627279 -3.5446 -1.88184 -5.24121c-1.25521 -1.69661 -2.69076 -2.6403 -4.30664 -2.83105l-41.6836 -6.45996c-1.96745 -6.27474 -4.83366 -13.0863 -8.59863 -20.4346c6.0944 -8.60352 14.1611 -18.9137 24.2002 -30.9307
c1.25456 -1.79753 1.88184 -3.58952 1.88184 -5.37598c0 -2.14844 -0.627279 -3.85026 -1.88184 -5.10547c-4.1263 -5.38086 -11.5202 -13.402 -22.1816 -24.0635c-10.6621 -10.6621 -17.6995 -15.998 -21.1123 -16.0078c-1.9681 0 -3.85059 0.627604 -5.64746 1.88281
l-30.9307 24.1992c-6.63607 -3.40365 -13.5381 -6.18457 -20.7061 -8.34277c-1.96745 -19.3659 -4.0306 -33.2601 -6.18945 -41.6826c-1.25456 -4.30664 -3.94499 -6.45996 -8.07129 -6.45996h-50.0107c-1.96745 0 -3.75944 0.672526 -5.37598 2.01758
c-1.61589 1.34505 -2.51432 2.91602 -2.69531 4.71289l-6.18945 41.1406c-6.09375 1.79753 -12.8148 4.57845 -20.1631 8.34277l-31.7295 -23.9277c-1.25456 -1.25521 -3.04655 -1.88281 -5.37598 -1.88281c-1.96745 0 -3.84961 0.717773 -5.64648 2.15332
c-25.8112 23.8431 -38.7168 38.1842 -38.7168 43.0234c0 1.61589 0.627604 3.31738 1.88281 5.10449c1.79688 2.50977 5.47103 7.25846 11.0225 14.2461c5.55208 6.98698 9.76367 12.4531 12.6348 16.3984c-4.1263 7.89128 -7.26367 15.2402 -9.41211 22.0469
l-40.8691 6.45996c-1.79688 0.180339 -3.32292 1.03353 -4.57812 2.55957c-1.25456 1.52604 -1.88184 3.27311 -1.88184 5.24121v49.7539c0 1.79688 0.627279 3.54362 1.88184 5.24023c1.25521 1.69661 2.69076 2.6403 4.30664 2.83105l41.6836 6.45996
c1.96745 6.27474 4.83333 13.0866 8.59766 20.4355c-6.09375 8.60352 -14.1602 18.9137 -24.1992 30.9307c-1.25456 1.96745 -1.88184 3.75944 -1.88184 5.37598c0 2.14844 0.627279 3.94043 1.88184 5.37598c3.94531 5.38086 11.2939 13.3571 22.0459 23.9287
c10.752 10.571 17.8346 15.8617 21.248 15.8721c1.9681 0 3.85059 -0.627604 5.64746 -1.88281l30.9307 -24.1992c6.09375 3.22266 12.9958 6.08887 20.7061 8.59863c1.96745 19.3652 4.0306 33.1689 6.18945 41.4111c1.25456 4.30729 3.94499 6.46094 8.07129 6.46094
h50.0098c1.9681 0 3.76009 -0.672852 5.37598 -2.01855c1.61654 -1.34505 2.5153 -2.91602 2.69629 -4.71289l6.18848 -41.1406c6.0944 -1.79688 12.8158 -4.5778 20.1641 -8.34277l31.7295 23.9287c1.43555 1.25456 3.22754 1.88184 5.37598 1.88184
c1.96745 0 3.84961 -0.717773 5.64648 -2.15332c25.8112 -23.8431 38.7168 -38.1839 38.7168 -43.0225c0 -1.61654 -0.627604 -3.31836 -1.88281 -5.10547c-2.14844 -2.87109 -5.91309 -7.70996 -11.2939 -14.5166s-9.41667 -12.1826 -12.1074 -16.1279
c4.1263 -8.60352 7.17318 -15.9521 9.14062 -22.0459l40.8701 -6.18945c1.79688 -0.361328 3.32259 -1.30501 4.57715 -2.83105c1.25521 -1.52604 1.88281 -3.27279 1.88281 -5.24023zM516.307 88.1992v-37.6465c0 -2.87109 -13.3571 -5.65202 -40.0713 -8.34277
c-2.14844 -4.83919 -4.83887 -9.50228 -8.07129 -13.9893c9.14583 -20.2598 13.7188 -32.6283 13.7188 -37.1055c0 -0.712891 -0.356445 -1.34017 -1.06934 -1.88184c-21.8757 -12.7298 -32.9893 -19.0947 -33.3408 -19.0947c-1.43555 0 -5.55664 4.21126 -12.3633 12.6338
c-6.80664 8.42318 -11.4697 14.5169 -13.9893 18.2812c-3.58398 -0.361328 -6.27441 -0.541992 -8.07129 -0.541992c-1.79753 0 -4.48828 0.180664 -8.07227 0.541992c-2.50977 -3.76432 -7.17285 -9.85807 -13.9893 -18.2812
c-6.81641 -8.42253 -10.9375 -12.6338 -12.3633 -12.6338c-0.361328 0 -11.4746 6.36491 -33.3398 19.0947c-0.712891 0.541667 -1.06934 1.16895 -1.06934 1.88184c0 4.47721 4.57292 16.8457 13.7188 37.1055c-3.22266 4.47721 -5.91341 9.1403 -8.07227 13.9893
c-26.7142 2.69076 -40.0713 5.47168 -40.0713 8.34277v37.6465c0 2.87174 13.3571 5.65267 40.0713 8.34277c2.32943 5.20052 5.02018 9.86393 8.07227 13.9902c-9.14583 20.2591 -13.7188 32.6273 -13.7188 37.1045c0 0.712891 0.356445 1.34049 1.06934 1.88281
c0.71224 0.361328 3.84928 2.15332 9.41113 5.37598c5.56185 3.22201 10.8525 6.26888 15.8721 9.14062c5.01953 2.87109 7.70996 4.30664 8.07129 4.30664c1.43555 0 5.55664 -4.16634 12.3633 -12.499s11.4701 -14.3812 13.9902 -18.1455
c3.58398 0.361328 6.27441 0.541992 8.07129 0.541992s4.4873 -0.180664 8.07129 -0.541992c9.14583 12.7292 17.3932 22.7682 24.7422 30.1172l1.61133 0.541992c0.712891 0 11.8262 -6.27441 33.3398 -18.8232c0.712891 -0.542318 1.06934 -1.16992 1.06934 -1.88281
c0 -4.47721 -4.57292 -16.8454 -13.7188 -37.1045c3.05208 -4.1263 5.74251 -8.78939 8.07129 -13.9893c26.7148 -2.69076 40.0723 -5.47168 40.0723 -8.34277zM516.307 363.565v-37.6475c0 -2.87109 -13.3571 -5.65202 -40.0713 -8.34277
c-2.14844 -4.83854 -4.83887 -9.50163 -8.07129 -13.9893c9.14583 -20.2591 13.7188 -32.6276 13.7188 -37.1055c0 -0.71224 -0.356445 -1.33952 -1.06934 -1.88184c-21.8757 -12.7298 -32.9893 -19.0947 -33.3408 -19.0947c-1.43555 0 -5.55664 4.21159 -12.3633 12.6348
c-6.80664 8.42253 -11.4697 14.5163 -13.9893 18.2812c-3.58398 -0.361328 -6.27441 -0.541992 -8.07129 -0.541992c-1.79753 0 -4.48828 0.180664 -8.07227 0.541992c-2.50977 -3.76497 -7.17285 -9.85872 -13.9893 -18.2812
c-6.81641 -8.42318 -10.9375 -12.6348 -12.3633 -12.6348c-0.361328 0 -11.4746 6.36491 -33.3398 19.0947c-0.712891 0.542318 -1.06934 1.1696 -1.06934 1.88184c0 4.47786 4.57292 16.8464 13.7188 37.1055c-3.22266 4.47721 -5.91341 9.1403 -8.07227 13.9893
c-26.7142 2.69076 -40.0713 5.47168 -40.0713 8.34277v37.6475c0 2.87109 13.3571 5.65202 40.0713 8.34277c2.32943 5.19987 5.02018 9.86296 8.07227 13.9893c-9.14583 20.2591 -13.7188 32.6273 -13.7188 37.1045c0 0.712891 0.356445 1.34049 1.06934 1.88281
c0.71224 0.361328 3.84928 2.15332 9.41113 5.37598s10.8525 6.26953 15.8721 9.14062s7.70996 4.30664 8.07129 4.30664c1.43555 0 5.55664 -4.16634 12.3633 -12.499c6.80664 -8.33203 11.4701 -14.3805 13.9902 -18.1455
c3.58398 0.361328 6.27441 0.541992 8.07129 0.541992s4.4873 -0.180664 8.07129 -0.541992c9.14583 12.7298 17.3932 22.7692 24.7422 30.1182l1.61133 0.541992c0.712891 0 11.8262 -6.27474 33.3398 -18.8242c0.712891 -0.541667 1.06934 -1.16895 1.06934 -1.88184
c0 -4.47786 -4.57292 -16.8464 -13.7188 -37.1055c3.05208 -4.12565 5.74251 -8.78874 8.07129 -13.9893c26.7148 -2.69076 40.0723 -5.47168 40.0723 -8.34277z" />
    <glyph glyph-name="uniF12B" unicode="&#xf12b;" 
d="M460.288 100.576c0 -10.0905 -3.52539 -18.6611 -10.5762 -25.7119l-21.4238 -21.4238c-7.24284 -7.24284 -15.9095 -10.8643 -26 -10.8643c-10.2826 0 -18.8532 3.62142 -25.7119 10.8643l-138.864 138.575l-138.864 -138.575
c-6.85872 -7.24284 -15.4294 -10.8643 -25.7119 -10.8643c-10.2826 0 -18.8532 3.62142 -25.7119 10.8643l-21.4238 21.4238c-7.24284 6.85872 -10.8643 15.4294 -10.8643 25.7119c0 10.0905 3.62142 18.7572 10.8643 26l186 186
c7.05078 7.05078 15.6214 10.5762 25.7119 10.5762c9.90951 0 18.5762 -3.52539 26 -10.5762l185.712 -186c7.24284 -7.24284 10.8643 -15.9095 10.8643 -26z" />
    <glyph glyph-name="uniF101" unicode="&#xf101;" 
d="M215.6 164.196l82.9834 -25.085c-5.57617 -23.2744 -14.3545 -42.7119 -26.3359 -58.3145c-11.9883 -15.6113 -26.8643 -27.3877 -44.6289 -35.3311c-17.7705 -7.94141 -40.3789 -11.9141 -67.8379 -11.9141c-33.3018 0 -60.5117 4.84082 -81.624 14.5186
c-21.1172 9.68066 -39.3311 26.7021 -54.6641 51.0742c-15.3281 24.3682 -22.9922 55.5654 -22.9922 93.5879c0 50.6895 13.4863 89.6484 40.4463 116.875c26.9639 27.2236 65.1133 40.8408 114.451 40.8408c38.6035 0 68.9473 -7.81055 91.0293 -23.4131
c22.0947 -15.6094 38.4961 -39.5811 49.2285 -71.9072l-83.6113 -18.6025c-2.92285 9.33203 -5.99316 16.1641 -9.19531 20.4844c-5.29785 7.24414 -11.7764 12.8193 -19.4443 16.7217c-7.66504 3.89844 -16.2314 5.85449 -25.708 5.85449
c-21.4658 0 -37.9092 -8.63281 -49.3369 -25.8926c-8.63379 -12.8086 -12.9541 -32.9209 -12.9541 -60.3359c0 -33.9658 5.15234 -57.2451 15.4609 -69.8457c10.3125 -12.5918 24.8096 -18.8877 43.4854 -18.8877c18.1104 0 31.8008 5.08594 41.0742 15.2617
c9.27051 10.165 15.9941 24.9443 20.1738 44.3105zM463.469 212.023h48.0312v-40.2969h-48.0312v-47.7812h-40.2959v47.7812h-57.8037v-47.7812h-40.2959v47.7812h-47.7812v40.2969h47.7812v48.0303h40.2959v-48.0303h57.8037v48.0303h40.2959v-48.0303z" />
    <glyph glyph-name="uniF129" unicode="&#xf129;" 
d="M460.288 246.864c0 -10.0911 -3.52539 -18.6618 -10.5762 -25.7119l-186 -186c-7.24284 -7.24284 -15.9095 -10.8643 -26 -10.8643c-10.2826 0 -18.8532 3.62142 -25.7119 10.8643l-186 186c-7.24284 6.85872 -10.8643 15.4294 -10.8643 25.7119
c0 10.0905 3.62142 18.7572 10.8643 26l21.1357 21.4238c7.42448 7.05078 16.0911 10.5762 26 10.5762c10.0911 0 18.6618 -3.52539 25.7119 -10.5762l138.864 -138.864l138.864 138.864c7.05078 7.05078 15.6214 10.5762 25.7119 10.5762
c9.90951 0 18.5762 -3.52539 26 -10.5762l21.4238 -21.4238c7.05078 -7.42448 10.5762 -16.0911 10.5762 -26z" />
    <glyph glyph-name="uniF10E" unicode="&#xf10e;" 
d="M88 -64c-13.2324 0 -24 10.7676 -24 24v464c0 13.2324 10.7676 24 24 24h224c0.480469 0 0.912109 -0.192383 1.37598 -0.272461c0.320312 -0.0478516 0.591797 -0.0791016 0.896484 -0.175781c1.3916 -0.416016 2.60742 -1.12012 3.56738 -2.14355
c0.0478516 -0.0478516 0.112305 -0.0478516 0.160156 -0.0966797l128 -144c0.112305 -0.143555 0.0957031 -0.319336 0.208008 -0.463867c0.704102 -0.895508 1.16797 -1.91992 1.44043 -3.05566c0.0791016 -0.351562 0.175781 -0.671875 0.208008 -1.04004
c0.015625 -0.255859 0.143555 -0.479492 0.143555 -0.751953v-336c0 -13.2324 -10.7676 -24 -24 -24h-336zM320 418.96v-102.96c0 -5.28027 4.48047 -12 8 -12h94.1924zM80 424v-464c0 -4.48047 3.51953 -8 8 -8h336c4.40039 0 8 3.58398 8 8v328h-104
c-13.5195 0 -24 15.0557 -24 28v116h-216c-4.40039 0 -8 -3.58398 -8 -8zM152 224c-4.41602 0 -8 3.58398 -8 8s3.58398 8 8 8h208c4.41602 0 8 -3.58398 8 -8s-3.58398 -8 -8 -8h-208zM152 160c-4.41602 0 -8 3.58398 -8 8s3.58398 8 8 8h208c4.41602 0 8 -3.58398 8 -8
s-3.58398 -8 -8 -8h-208zM152 288c-4.41602 0 -8 3.58398 -8 8s3.58398 8 8 8h96c4.41602 0 8 -3.58398 8 -8s-3.58398 -8 -8 -8h-96zM152 96c-4.41602 0 -8 3.58398 -8 8s3.58398 8 8 8h208c4.41602 0 8 -3.58398 8 -8s-3.58398 -8 -8 -8h-208zM152 32
c-4.41602 0 -8 3.58398 -8 8s3.58398 8 8 8h208c4.41602 0 8 -3.58398 8 -8s-3.58398 -8 -8 -8h-208z" />
  </font>
</defs>
</svg>
