<?xml version="1.0" encoding="UTF-8"?>
<!DOCTYPE svg PUBLIC "-//W3C//DTD SVG 1.1//EN" "http://www.w3.org/Graphics/SVG/1.1/DTD/svg11.dtd">
<svg version="1.1" xmlns="http://www.w3.org/2000/svg" xmlns:xlink="http://www.w3.org/1999/xlink" x="0px" y="0px" width="728.199" height="275.837" viewBox="0, 0, 728.199, 275.837">
  <g id="Layer 1">
    <path d="M109.819,229.921 C102.251,224.267 83.165,204.314 95.272,192.817 C99.796,188.521 105.11,198.021 107.162,199.312 C113.913,203.559 116.507,199.923 119.9,195.654 C126.079,184.214 117.799,172.126 114.842,163.679 C111.471,154.049 104.817,141.93 110.109,134.427 C115.4,126.924 127.689,127.416 130.692,133.14 C135.513,142.326 133.573,146.173 133.604,155.641 C133.658,171.84 135.127,194.133 139.873,209.862 C142.711,219.267 145.665,230.758 144.286,241.308 C143.916,244.133 143.756,251.933 141.224,259.959 C138.443,268.778 134.685,275.97 130.257,274.688 C126.973,273.738 126.071,270.137 125.85,260.918 C125.619,251.286 123.238,243.353 120.137,239.362 C117.716,236.276 114.445,233.376 109.819,229.921" fill="#4A78AF"/>
    <path d="M106.868,233.647 C121.234,243.693 119.354,266.025 108.945,266.32 C94.608,266.726 100.94,256.417 88.263,240.188 C80.91,230.775 59.829,233.856 53.341,231.562 C31.972,224.006 20.48,205.645 25.297,194.805 C31.522,180.798 45.254,186.079 49.994,197.922 C56.406,213.944 69.517,216.567 74.318,208.871 C80.682,198.671 53.377,170.483 45.064,164.292 C32.869,155.211 0.938,169.136 1,148.369 C1.062,127.601 24.598,149.61 28.908,144.231 C33.218,138.852 33.43,134.799 27.635,118.694 C21.84,102.589 20.051,86.349 35.891,88.406 C51.731,90.463 44.904,110.701 48.075,125.962 C49.678,133.68 62.019,172.867 76.557,161.343 C88.178,152.131 64.998,126.243 62.414,104.201 C59.621,80.378 62.379,64.063 66.678,57.777 C75.557,44.793 93.415,49.182 89.546,64.755 C85.529,80.922 73.185,110.024 89.564,116.555 C111.568,125.33 92.182,142.912 106.311,165 C109.006,169.212 118.773,188.465 115.103,192.011 C112.824,194.213 110.034,196.189 105.603,190.437 C101.171,184.684 97.861,183.829 94.247,185.154 C88.489,187.264 84.316,195.877 85.439,204.084 C87.278,217.525 92.781,223.795 106.868,233.647" fill="#859FC6"/>
    <path d="M161.786,38.936 C163.622,23.457 174.486,6.879 162.243,2.282 C150,-2.314 142.417,5.66 142.802,22.771 C143.188,39.883 146.59,47.592 140.796,51.327 C135.001,55.061 116.802,38.379 114.566,54.63 C112.487,69.741 128.26,68.393 139.516,72.217 C154.66,77.363 165.367,95.177 160.27,106.049 C153.377,120.755 136.829,79.717 120.401,93.173 C112.584,99.577 114.14,110.992 127.297,117.47 C141.175,124.304 148.869,138.985 144.52,153.733 C138.822,173.051 140.235,197.86 146.385,213.435 C150.083,222.801 154.283,236.37 153.653,243.273 C153.344,246.657 146.881,263.994 152.209,267.341 C165.742,275.841 174.702,249.348 178.065,242.132 C183.392,230.703 186.996,218.874 196.88,215.625 C209.95,211.328 222.306,216.122 232.672,212.77 C253.476,206.042 227.761,162.687 207.112,189.087 C199.377,198.975 185.274,198.913 178.544,188.767 C161.074,162.434 189.236,109.599 213.353,96.571 C228.291,88.502 236.173,85.36 232.54,74.614 C229.014,64.183 216.565,62.748 204.826,76.496 C192.415,91.031 182.505,88.231 175.025,81.361 C165.113,72.257 160.103,53.13 161.786,38.936" fill="#0C65A3"/>
    <path d="M662.584,149.856 L662.594,149.856 L662.594,206.105 L641.923,206.105 L641.923,194.749 C633.201,201.854 622.337,206.076 610.557,206.076 C581.83,206.076 558.522,180.999 558.522,150.095 C558.522,119.184 581.83,94.107 610.557,94.107 C639.204,94.107 662.464,119.056 662.584,149.856 z M641.923,149.856 L641.968,149.856 C641.846,131.304 627.822,116.289 610.557,116.289 C593.211,116.289 579.14,131.43 579.14,150.093 C579.14,168.753 593.211,183.894 610.557,183.894 C627.312,183.894 641.018,169.752 641.923,151.965 z" fill="#0C65A3"/>
    <path d="M558.789,116.301 L558.107,116.289 C541.404,116.289 527.736,130.329 526.751,148.04 L526.735,206.105 L505.913,206.105 L506.114,148.04 C507.12,118.082 530.02,94.107 558.11,94.107 L558.789,94.114 z" fill="#0C65A3"/>
    <path d="M339.661,206.076 C360.287,206.076 378.115,193.151 386.533,174.413 L361.467,174.413 C355.813,180.284 348.129,183.894 339.661,183.894 C322.316,183.894 308.243,168.753 308.243,150.093 C308.243,131.43 322.316,116.289 339.661,116.289 C348.126,116.289 355.809,119.903 361.46,125.768 L386.525,125.768 C378.108,107.037 360.284,94.107 339.661,94.107 C310.935,94.107 287.627,119.184 287.627,150.095 C287.627,180.999 310.935,206.076 339.661,206.076" fill="#0C65A3"/>
    <path d="M727.199,183.911 L726.516,183.92 C709.816,183.92 696.147,169.879 695.16,152.17 L695.144,44.139 L674.323,57.082 L674.524,152.17 C675.53,182.13 698.429,206.103 726.52,206.103 L727.199,206.093 z" fill="#0C65A3"/>
    <path d="M440.594,94.107 C469.318,94.107 492.623,119.184 492.623,150.095 C492.623,180.999 469.318,206.076 440.594,206.076 C411.868,206.076 388.562,180.999 388.562,150.095 C388.562,119.184 411.868,94.107 440.594,94.107 z M440.593,116.289 C423.25,116.289 409.178,131.43 409.178,150.093 C409.178,168.753 423.25,183.894 440.593,183.894 C457.936,183.894 472.008,168.753 472.008,150.093 C472.008,131.43 457.936,116.289 440.593,116.289 z" fill="#0C65A3"/>
  </g>
  <defs/>
</svg>
