<?xml version="1.0" encoding="UTF-8"?>
<!DOCTYPE svg PUBLIC "-//W3C//DTD SVG 1.1//EN" "http://www.w3.org/Graphics/SVG/1.1/DTD/svg11.dtd">
<svg version="1.1" xmlns="http://www.w3.org/2000/svg" xmlns:xlink="http://www.w3.org/1999/xlink" x="0px" y="0px" width="276" height="276" viewBox="0, 0, 276, 276">
  <g id="Layer 1">
    <path d="M127.133,230.003 C119.565,224.348 100.479,204.395 112.586,192.898 C117.11,188.602 122.424,198.102 124.476,199.393 C131.227,203.641 133.821,200.005 137.214,195.736 C143.393,184.296 135.113,172.208 132.156,163.76 C128.785,154.13 122.131,142.011 127.423,134.508 C132.714,127.006 145.003,127.497 148.006,133.221 C152.827,142.408 150.887,146.255 150.918,155.723 C150.972,171.921 152.441,194.214 157.187,209.943 C160.025,219.348 162.979,230.839 161.6,241.389 C161.23,244.214 161.07,252.014 158.538,260.04 C155.757,268.859 151.999,276.051 147.571,274.77 C144.287,273.819 143.385,270.219 143.164,261 C142.933,251.367 140.552,243.434 137.451,239.443 C135.03,236.357 131.759,233.458 127.133,230.003" fill="#4A78AF"/>
    <path d="M124.182,233.729 C138.548,243.774 136.668,266.107 126.259,266.401 C111.922,266.807 118.254,256.499 105.577,240.27 C98.224,230.856 77.143,233.938 70.655,231.643 C49.286,224.087 37.794,205.727 42.611,194.886 C48.836,180.88 62.568,186.16 67.308,198.003 C73.72,214.025 86.831,216.648 91.632,208.952 C97.996,198.753 70.691,170.564 62.378,164.374 C50.183,155.292 18.252,169.217 18.314,148.451 C18.376,127.682 41.912,149.691 46.222,144.312 C50.532,138.934 50.744,134.88 44.949,118.775 C39.154,102.67 37.365,86.43 53.205,88.487 C69.045,90.544 62.218,110.782 65.389,126.043 C66.992,133.761 79.333,172.949 93.871,161.424 C105.492,152.212 82.312,126.324 79.728,104.282 C76.935,80.459 79.693,64.145 83.992,57.858 C92.871,44.874 110.729,49.263 106.86,64.836 C102.843,81.003 90.499,110.105 106.878,116.636 C128.882,125.411 109.496,142.993 123.625,165.081 C126.32,169.294 136.087,188.546 132.417,192.092 C130.138,194.294 127.348,196.27 122.917,190.518 C118.485,184.766 115.175,183.91 111.561,185.236 C105.803,187.346 101.63,195.958 102.753,204.165 C104.592,217.606 110.095,223.876 124.182,233.729" fill="#859FC6"/>
    <path d="M179.1,39.017 C180.936,23.538 191.8,6.96 179.557,2.363 C167.314,-2.233 159.731,5.741 160.116,22.852 C160.502,39.964 163.904,47.673 158.11,51.408 C152.315,55.142 134.116,38.46 131.88,54.711 C129.801,69.822 145.574,68.474 156.83,72.299 C171.974,77.444 182.681,95.258 177.584,106.131 C170.691,120.836 154.143,79.799 137.715,93.254 C129.898,99.659 131.454,111.073 144.611,117.551 C158.489,124.385 166.183,139.066 161.834,153.814 C156.136,173.132 157.549,197.941 163.699,213.516 C167.397,222.882 171.597,236.451 170.967,243.354 C170.658,246.738 164.195,264.076 169.523,267.422 C183.056,275.922 192.016,249.43 195.379,242.214 C200.706,230.785 204.31,218.955 214.194,215.706 C227.264,211.41 239.62,216.203 249.986,212.852 C270.79,206.124 245.075,162.768 224.426,189.169 C216.691,199.057 202.588,198.994 195.858,188.848 C178.388,162.516 206.55,109.68 230.667,96.652 C245.605,88.583 253.487,85.441 249.854,74.695 C246.328,64.264 233.879,62.829 222.14,76.577 C209.729,91.112 199.819,88.312 192.339,81.442 C182.427,72.339 177.417,53.211 179.1,39.017" fill="#0C65A3"/>
  </g>
  <defs/>
</svg>
