<?xml version="1.0" encoding="UTF-8"?>
<!DOCTYPE svg PUBLIC "-//W3C//DTD SVG 1.1//EN" "http://www.w3.org/Graphics/SVG/1.1/DTD/svg11.dtd">
<svg version="1.1" xmlns="http://www.w3.org/2000/svg" xmlns:xlink="http://www.w3.org/1999/xlink" x="0px" y="0px" width="28" height="28" viewBox="0, 0, 28, 28">
  <g id="Layer 1">
    <path d="M22.686,14.037 C24.979,16.51 26.006,18.943 25.115,20.503 C24.226,22.059 21.634,22.38 18.377,21.617 C17.402,24.876 15.823,27.004 14.036,27.004 C12.247,27.004 10.669,24.869 9.696,21.601 C6.403,22.386 3.78,22.071 2.884,20.503 C1.993,18.943 3.021,16.507 5.314,14.031 C2.977,11.535 1.925,9.071 2.824,7.499 C3.724,5.923 6.372,5.612 9.688,6.412 C10.662,3.137 12.246,0.996 14.037,0.996 C15.827,0.996 17.406,3.13 18.379,6.397 C21.664,5.617 24.283,5.933 25.178,7.499 C26.074,9.072 25.021,11.538 22.686,14.037 z M3.751,8.041 C3.063,9.245 4.012,11.219 6.021,13.306 C6.84,12.507 7.783,11.714 8.833,10.952 C8.961,9.686 9.156,8.485 9.423,7.392 C6.616,6.671 4.442,6.832 3.751,8.041 z M8.72,12.361 C8,12.909 7.343,13.465 6.754,14.02 C7.351,14.578 7.995,15.138 8.724,15.69 C8.694,15.135 8.673,14.574 8.673,14 C8.673,13.444 8.691,12.898 8.72,12.361 z M8.832,17.094 C7.781,16.335 6.841,15.544 6.019,14.748 C4.046,16.816 3.13,18.767 3.812,19.961 C4.499,21.162 6.65,21.329 9.432,20.623 C9.165,19.536 8.959,18.354 8.832,17.094 z M18.088,17.835 C17.642,18.128 17.186,18.416 16.711,18.693 C16.229,18.974 15.747,19.232 15.267,19.478 C16.09,19.828 16.895,20.133 17.659,20.367 C17.838,19.583 17.977,18.728 18.088,17.835 z M14.035,25.92 C15.404,25.92 16.619,24.135 17.405,21.363 C16.32,21.051 15.174,20.617 14.006,20.089 C12.859,20.61 11.737,21.029 10.669,21.342 C11.453,24.121 12.666,25.92 14.035,25.92 z M10.422,20.342 C11.164,20.111 11.94,19.824 12.738,19.484 C12.256,19.237 11.771,18.976 11.287,18.694 C10.838,18.431 10.406,18.161 9.983,17.884 C10.092,18.761 10.247,19.57 10.422,20.342 z M9.985,10.156 C10.426,9.867 10.878,9.583 11.347,9.308 C11.81,9.037 12.273,8.788 12.735,8.55 C11.934,8.208 11.15,7.906 10.404,7.673 C10.23,8.443 10.095,9.282 9.985,10.156 z M14.035,2.08 C12.662,2.08 11.441,3.882 10.656,6.674 C11.723,6.988 12.847,7.419 13.992,7.941 C15.164,7.404 16.31,6.975 17.401,6.657 C16.617,3.88 15.405,2.08 14.035,2.08 z M17.65,7.655 C16.882,7.894 16.08,8.19 15.252,8.546 C15.717,8.785 16.184,9.036 16.65,9.309 C17.152,9.602 17.632,9.907 18.101,10.217 C17.991,9.302 17.832,8.457 17.65,7.655 z M18.239,11.604 C17.569,11.138 16.861,10.683 16.113,10.248 C15.397,9.83 14.687,9.465 13.985,9.124 C13.292,9.462 12.589,9.837 11.884,10.248 C11.171,10.663 10.49,11.097 9.849,11.539 C9.787,12.336 9.745,13.152 9.745,14.001 C9.745,14.859 9.78,15.694 9.842,16.5 C10.469,16.931 11.131,17.352 11.823,17.756 C12.559,18.185 13.289,18.56 14.011,18.908 C14.724,18.562 15.448,18.179 16.173,17.756 C16.892,17.337 17.575,16.901 18.222,16.454 C18.283,15.66 18.326,14.847 18.326,14.001 C18.326,13.179 18.296,12.378 18.239,11.604 z M24.186,19.961 C24.868,18.769 23.944,16.821 21.975,14.758 C21.174,15.532 20.257,16.3 19.239,17.039 C19.111,18.321 18.913,19.538 18.641,20.643 C21.387,21.328 23.506,21.151 24.186,19.961 z M19.352,15.63 C20.041,15.104 20.673,14.57 21.243,14.039 C20.671,13.499 20.054,12.956 19.356,12.421 C19.381,12.94 19.399,13.465 19.399,14 C19.398,14.554 19.38,15.096 19.352,15.63 z M24.246,8.041 C23.56,6.842 21.416,6.672 18.641,7.375 C18.914,8.493 19.125,9.714 19.251,11.016 C20.27,11.761 21.181,12.536 21.979,13.315 C23.992,11.224 24.936,9.247 24.246,8.041 z M14.199,16.062 C13.022,16.062 12.068,15.099 12.068,13.91 C12.068,12.722 13.022,11.758 14.199,11.758 C15.375,11.758 16.329,12.722 16.329,13.91 C16.329,15.1 15.375,16.062 14.199,16.062 z" fill="#000000"/>
  </g>
  <defs/>
</svg>
