<?xml version="1.0" encoding="UTF-8"?>
<!DOCTYPE svg PUBLIC "-//W3C//DTD SVG 1.1//EN" "http://www.w3.org/Graphics/SVG/1.1/DTD/svg11.dtd">
<svg version="1.1" xmlns="http://www.w3.org/2000/svg" xmlns:xlink="http://www.w3.org/1999/xlink" x="0px" y="0px" width="32" height="32" viewBox="0, 0, 32, 32">
  <g id="Layer 1">
    <path d="M5.5,32 L26.5,32 C27.327,32 28,31.327 28,30.5 L28,9.5 C28,9.483 27.992,9.469 27.991,9.453 C27.989,9.43 27.983,9.41 27.978,9.388 C27.961,9.317 27.932,9.253 27.888,9.197 C27.881,9.188 27.882,9.177 27.875,9.168 L19.875,0.168 C19.872,0.165 19.868,0.165 19.865,0.162 C19.805,0.098 19.729,0.054 19.642,0.028 C19.623,0.022 19.606,0.02 19.586,0.017 C19.557,0.012 19.53,0 19.5,0 L5.5,0 C4.673,0 4,0.673 4,1.5 L4,30.5 C4,31.327 4.673,32 5.5,32 z M20,1.815 L26.387,9 L20.5,9 C20.28,9 20,8.58 20,8.25 L20,1.815 z M5,1.5 C5,1.224 5.225,1 5.5,1 L19,1 L19,8.25 C19,9.059 19.655,10 20.5,10 L27,10 L27,30.5 C27,30.776 26.775,31 26.5,31 L5.5,31 C5.22,31 5,30.78 5,30.5 L5,1.5 z M9.5,14 L22.5,14 C22.776,14 23,13.776 23,13.5 C23,13.224 22.776,13 22.5,13 L9.5,13 C9.224,13 9,13.224 9,13.5 C9,13.776 9.224,14 9.5,14 z M9.5,18 L22.5,18 C22.776,18 23,17.776 23,17.5 C23,17.224 22.776,17 22.5,17 L9.5,17 C9.224,17 9,17.224 9,17.5 C9,17.776 9.224,18 9.5,18 z M9.5,10 L15.5,10 C15.776,10 16,9.776 16,9.5 C16,9.224 15.776,9 15.5,9 L9.5,9 C9.224,9 9,9.224 9,9.5 C9,9.776 9.224,10 9.5,10 z M9.5,22 L22.5,22 C22.776,22 23,21.776 23,21.5 C23,21.224 22.776,21 22.5,21 L9.5,21 C9.224,21 9,21.224 9,21.5 C9,21.776 9.224,22 9.5,22 z M9.5,26 L22.5,26 C22.776,26 23,25.776 23,25.5 C23,25.224 22.776,25 22.5,25 L9.5,25 C9.224,25 9,25.224 9,25.5 C9,25.776 9.224,26 9.5,26 z" fill="#000000"/>
  </g>
  <defs/>
</svg>
