<?xml version="1.0" encoding="UTF-8"?>
<!DOCTYPE svg PUBLIC "-//W3C//DTD SVG 1.1//EN" "http://www.w3.org/Graphics/SVG/1.1/DTD/svg11.dtd">
<svg version="1.1" xmlns="http://www.w3.org/2000/svg" xmlns:xlink="http://www.w3.org/1999/xlink" x="0px" y="0px" width="96" height="96" viewBox="0, 0, 96, 96">
  <g id="Layer 1">
    <path d="M86.363,43 L45.111,43 C43.489,26.898 34.105,12.403 19.81,4.38 C17.399,3.028 14.353,3.886 13.001,6.293 C11.649,8.701 12.507,11.749 14.914,13.101 C27.528,20.179 35.363,33.551 35.363,48 C35.363,62.448 27.528,75.82 14.916,82.898 C12.508,84.251 11.651,87.297 13.004,89.707 C13.92,91.341 15.618,92.261 17.368,92.261 C18.196,92.261 19.036,92.055 19.81,91.62 C34.105,83.598 43.489,69.102 45.111,53 L86.363,53 L86.363,43 z" fill="#000000"/>
  </g>
  <defs/>
</svg>
