<?xml version="1.0" encoding="utf-8"?>
<!-- Generated by IcoMoon.io -->
<!DOCTYPE svg PUBLIC "-//W3C//DTD SVG 1.1//EN" "http://www.w3.org/Graphics/SVG/1.1/DTD/svg11.dtd">
<svg version="1.1" xmlns="http://www.w3.org/2000/svg" xmlns:xlink="http://www.w3.org/1999/xlink" width="32" height="32" viewBox="0 0 32 32">
<g>
</g>
	<path d="M13.172 22.922q-1.172-1.172-1.172-2.828t1.188-2.844l17-11.313-11.344 17q-1.156 1.156-2.828 1.156t-2.844-1.172zM16 6.031q-2.844 0-5.453 1.125t-4.484 3-2.984 4.469-1.109 5.438q0 3.313 1.5 6.313l-1.75 0.875q-1.719-3.406-1.719-7.156 0-3.281 1.266-6.234t3.406-5.094 5.109-3.406 6.219-1.266q5.031 0 9.156 2.875l-1.781 1.188q-3.406-2.125-7.375-2.125zM29.156 10.969q2.844 4.125 2.844 9.125 0 3.75-1.719 7.156l-1.75-0.906q1.5-2.969 1.5-6.281 0-3.906-2.063-7.313z" fill="#000000" />
</svg>
