<?xml version="1.0" encoding="UTF-8"?>
<!DOCTYPE svg PUBLIC "-//W3C//DTD SVG 1.1//EN" "http://www.w3.org/Graphics/SVG/1.1/DTD/svg11.dtd">
<svg version="1.1" xmlns="http://www.w3.org/2000/svg" xmlns:xlink="http://www.w3.org/1999/xlink" x="0px" y="0px" width="62" height="62" viewBox="0, 0, 62, 62">
  <g id="Layer 1">
    <path d="M26,9 L26,16 L38,16 L38,9 L54,9 L54,16 L61,16 L61,56.333 L1,56.333 L1,16 L10,16 L10,9 z M24.576,25.448 C21.507,25.46 18.353,26.215 16.131,28.461 C13.906,30.71 13.092,33.999 13.146,37.086 C13.158,37.757 13.137,38.435 13.252,39.096 C13.631,41.265 14.179,43.566 15.731,45.239 C16.846,46.44 17.519,47.13 18.876,47.761 C21.829,49.132 26.877,49.285 29.906,47.953 C30.96,47.489 31.575,46.984 32.495,46.157 C33.948,44.85 34.624,42.857 35.142,41.043 L29.019,39.192 C28.8,40.399 28.268,41.494 27.53,42.461 C26.846,43.212 25.836,43.588 24.499,43.588 C23.121,43.588 22.051,43.123 21.29,42.194 C20.53,41.264 20.149,39.546 20.149,37.04 C20.149,35.017 20.468,33.533 21.105,32.587 C21.339,32.309 21.51,31.962 21.807,31.752 C22.366,31.355 22.984,31.032 23.627,30.796 C24.801,30.367 26.509,30.845 27.426,31.633 C28.166,32.27 28.428,32.969 28.756,33.854 L34.926,32.482 C34.112,30.183 32.435,27.275 29.957,26.42 C28.864,26.043 27.718,25.844 26.598,25.556 z M37.097,32.118 L37.097,35.662 L33.571,35.662 L33.571,38.636 L37.097,38.636 L37.097,42.162 L40.07,42.162 L40.07,38.636 L44.336,38.636 L44.336,42.162 L47.309,42.162 L47.309,38.636 L50.854,38.636 L50.854,35.662 L47.309,35.662 L47.309,32.118 L44.336,32.118 L44.336,35.662 L40.07,35.662 L40.07,32.118 z" fill="#000000"/>
  </g>
  <defs/>
</svg>
