<?xml version="1.0" encoding="UTF-8"?>
<!DOCTYPE svg PUBLIC "-//W3C//DTD SVG 1.1//EN" "http://www.w3.org/Graphics/SVG/1.1/DTD/svg11.dtd">
<svg version="1.1" xmlns="http://www.w3.org/2000/svg" xmlns:xlink="http://www.w3.org/1999/xlink" x="0px" y="0px" width="32" height="32" viewBox="0, 0, 32, 32">
  <g id="Layer 1">
    <path d="M16,0 L16,0.001 L16.663,0.135 L17.569,1.041 C17.868,2.52 17.703,1.478 17.703,4.203 C19.554,4.584 18.646,4.341 20.427,4.931 C21.786,2.57 21.12,3.388 22.123,2.261 L23.361,1.93 C24.216,2.218 23.833,1.997 24.511,2.593 L24.843,3.829 C24.362,5.259 24.74,4.273 23.375,6.639 C24.776,7.89 24.113,7.227 25.364,8.628 C27.729,7.262 26.743,7.642 28.173,7.159 L29.41,7.492 C30.005,8.17 29.785,7.787 30.072,8.642 L29.741,9.879 C28.614,10.884 29.431,10.216 27.071,11.582 C27.411,12.44 27.664,13.352 27.799,14.299 L30.299,14.299 C31.238,14.299 32,15.062 32,16.002 C32,16.941 31.237,17.704 30.298,17.704 L27.798,17.704 C27.663,18.651 27.41,19.563 27.07,20.421 C29.43,21.787 28.613,21.119 29.74,22.124 L30.071,23.361 C29.783,24.216 30.004,23.833 29.409,24.511 L28.172,24.843 C26.742,24.362 27.728,24.741 25.363,23.375 C24.777,24.111 24.11,24.778 23.374,25.364 C24.74,27.729 24.36,26.743 24.843,28.173 L24.51,29.41 C23.832,30.005 24.215,29.784 23.36,30.072 L22.122,29.741 C21.119,28.615 21.785,29.432 20.427,27.071 C18.646,27.661 19.553,27.417 17.703,27.799 L17.703,30.299 L17.569,30.961 L16.663,31.867 L16,32.001 C15.061,32.001 14.298,31.238 14.298,30.299 L14.298,27.799 C12.448,27.417 13.355,27.661 11.574,27.071 C10.216,29.431 10.882,28.614 9.878,29.74 L8.641,30.071 C7.786,29.783 8.169,30.004 7.491,29.409 L7.158,28.172 C7.64,26.742 7.261,27.728 8.627,25.363 C7.226,24.112 7.889,24.775 6.638,23.374 C4.272,24.74 5.258,24.36 3.828,24.843 L2.592,24.51 C1.996,23.832 2.217,24.215 1.929,23.36 L2.26,22.123 C3.387,21.118 2.57,21.786 4.93,20.42 C4.339,18.645 4.583,19.55 4.202,17.703 L1.702,17.703 L1.04,17.569 L0.134,16.663 C-0.045,15.78 -0.045,16.221 0.134,15.338 L1.04,14.432 C2.519,14.133 1.477,14.298 4.202,14.298 C4.583,12.45 4.339,13.356 4.93,11.581 C2.569,10.215 3.387,10.883 2.26,9.878 L1.929,8.641 C2.217,7.786 1.996,8.169 2.592,7.491 L3.828,7.158 C5.258,7.641 4.272,7.261 6.638,8.627 C7.889,7.226 7.226,7.889 8.627,6.638 C7.261,4.272 7.641,5.258 7.158,3.828 L7.491,2.592 C8.169,1.996 7.786,2.217 8.641,1.929 L9.878,2.26 C10.882,3.386 10.216,2.569 11.574,4.93 C13.355,4.34 12.448,4.584 14.298,4.202 L14.298,1.702 L14.432,1.04 L15.338,0.134 z M16.046,9.971 C14.56,9.972 13.059,10.477 12.047,11.602 C10.095,13.771 10.015,18.371 12.104,20.487 C13.798,22.203 16.589,22.249 18.804,21.814 C19.763,21.626 20.019,21.496 20.937,21.168 L20.937,18.41 C19.525,19.266 18.409,19.534 16.795,19.651 C14.767,19.552 13.816,19.073 13.636,16.964 L21.419,16.964 L21.419,15.744 C21.409,14.23 21.072,12.624 20.009,11.484 C19.777,11.235 19.535,10.977 19.233,10.822 C18.604,10.499 17.912,10.318 17.251,10.066 z M16.046,12.299 C16.736,12.306 17.725,12.549 18.043,13.25 C18.381,13.993 18.339,14.031 18.394,14.709 L13.667,14.719 C13.738,14.043 14.064,12.993 14.729,12.654 C14.991,12.52 15.279,12.443 15.555,12.338 z" fill="#000000"/>
  </g>
  <defs/>
</svg>
