<?xml version="1.0" encoding="UTF-8"?>
<!DOCTYPE svg PUBLIC "-//W3C//DTD SVG 1.1//EN" "http://www.w3.org/Graphics/SVG/1.1/DTD/svg11.dtd">
<svg version="1.1" xmlns="http://www.w3.org/2000/svg" xmlns:xlink="http://www.w3.org/1999/xlink" x="0px" y="0px" width="283.465" height="283.465" viewBox="0, 0, 283.465, 283.465">
  <g id="Layer 1">
    <path d="M238.464,0 C263.924,0.463 282.825,19.667 283.465,45 L283.465,237.232 C283.465,262.085 263.317,282.232 238.465,282.232 L45,282.232 C19.54,281.769 0.64,262.565 -0,237.232 L-0,45 C0.463,19.54 19.667,0.64 45,0 z M193.822,54.252 L89.642,54.252 L89.642,84.721 L124.447,84.721 L124.447,198.744 L89.642,198.744 L89.642,229.213 L193.822,229.213 L193.822,198.744 L159.017,198.744 L159.017,84.721 L193.822,84.721 z" fill="#000000"/>
  </g>
  <defs/>
</svg>
