<?xml version="1.0" encoding="UTF-8"?>
<!DOCTYPE svg PUBLIC "-//W3C//DTD SVG 1.1//EN" "http://www.w3.org/Graphics/SVG/1.1/DTD/svg11.dtd">
<svg version="1.1" xmlns="http://www.w3.org/2000/svg" xmlns:xlink="http://www.w3.org/1999/xlink" x="0px" y="0px" width="283.465" height="283.465" viewBox="0, 0, 283.465, 283.465">
  <g id="Layer 1">
    <path d="M238.464,0 C263.924,0.463 282.825,19.667 283.465,45 L283.465,237.232 C283.465,262.085 263.317,282.232 238.465,282.232 L45,282.232 C19.54,281.769 0.64,262.565 -0,237.232 L-0,45 C0.463,19.54 19.667,0.64 45,0 z M141.322,50.354 C123.588,50.354 109.642,54.886 99.486,63.948 C89.33,73.011 84.252,85.472 84.252,101.331 C84.252,113.675 87.338,123.499 93.51,130.804 C99.682,138.108 111.478,145.081 128.9,151.722 L145.892,158.167 C151.83,160.433 156.361,163.538 159.486,167.483 C162.611,171.429 164.174,176.018 164.174,181.253 C164.174,188.206 161.83,193.616 157.142,197.483 C152.455,201.351 145.853,203.284 137.338,203.284 C128.9,203.284 120.365,201.683 111.732,198.479 C103.099,195.276 94.174,190.393 84.955,183.831 L84.955,219.573 C93.08,223.636 101.498,226.702 110.209,228.772 C118.92,230.843 127.611,231.878 136.283,231.878 C157.377,231.878 173.139,227.522 183.568,218.811 C193.998,210.101 199.213,196.917 199.213,179.261 C199.213,166.292 195.892,155.55 189.252,147.034 C182.611,138.518 172.26,131.683 158.197,126.526 L143.314,120.901 C133.002,117.073 126.224,113.577 122.982,110.413 C119.74,107.249 118.119,103.245 118.119,98.401 C118.119,92.151 120.346,87.347 124.799,83.987 C129.252,80.628 135.658,78.948 144.017,78.948 C151.517,78.948 159.096,80.315 166.752,83.05 C174.408,85.784 181.947,89.768 189.369,95.003 L189.369,61.253 C181.478,57.659 173.51,54.944 165.463,53.108 C157.416,51.272 149.369,50.354 141.322,50.354 z" fill="#000000"/>
  </g>
  <defs/>
</svg>
